<svg width="66" height="66" viewBox="0 0 66 66" fill="none" xmlns="http://www.w3.org/2000/svg">
<circle cx="33" cy="33" r="33" fill="#E6F2EA"/>
<path fill-rule="evenodd" clip-rule="evenodd" d="M39.1009 32.3412L46.0406 28.106L49.1501 34.2284C49.9012 37.5735 45.7853 38.8011 42.4804 38.6014L39.1006 32.3412H39.1009Z" fill="#28B446"/>
<path fill-rule="evenodd" clip-rule="evenodd" d="M37.5233 36.7142L33.873 43.2967L37.5233 49.9715L37.6134 47.3014H40.9482C42.165 47.409 43.7422 46.5957 44.328 45.4142L48.6092 37.4045C47.1973 38.8314 45.3815 39.1997 43.2917 39.1997H37.6587L37.5236 36.714L37.5233 36.7142Z" fill="#28B446"/>
<path fill-rule="evenodd" clip-rule="evenodd" d="M29.3682 28.5983L22.375 24.4561L26.1059 18.7074C28.6044 16.413 31.653 19.4931 33.0861 22.5413L29.3683 28.5985L29.3682 28.5983Z" fill="#28B446"/>
<path fill-rule="evenodd" clip-rule="evenodd" d="M33.8767 27.8844L41.2826 27.9491L45.2238 21.4495L42.8948 22.6648L41.2762 19.6866C40.7774 18.5478 39.3158 17.534 38.0201 17.5842L29.0864 17.6486C30.9932 18.2169 32.1896 19.6598 33.2039 21.5263L35.9382 26.5571L33.8762 27.8844H33.8767Z" fill="#28B446"/>
<path fill-rule="evenodd" clip-rule="evenodd" d="M17.0232 28.2553L19.19 29.9479L17.1506 33.8539C16.1309 35.6551 17.8827 37.4097 18.9988 38.0201C20.0975 38.6214 21.8029 38.6929 23.3962 38.6712L26.2641 33.9841L28.4309 35.1558L24.6709 28.1902L17.0233 28.2553H17.0232Z" fill="#28B446"/>
<path fill-rule="evenodd" clip-rule="evenodd" d="M17.3418 37.3043L21.994 45.8976C22.9288 47.0911 24.6919 47.3733 26.519 47.3299H31.4263V39.1926L22.1216 39.1275C20.677 39.2144 18.7863 38.9105 17.3418 37.3046V37.3043Z" fill="#28B446"/>
</svg>
