<svg width="66" height="66" viewBox="0 0 66 66" fill="none" xmlns="http://www.w3.org/2000/svg">
<circle cx="33" cy="33" r="33" fill="#FFE9E5"/>
<g clip-path="url(#clip0_49_22)">
<path d="M32.9816 18C35.7329 18 38.2789 18.888 40.3468 20.3932C42.4678 21.9372 44.0853 24.1319 44.9099 26.686C45.8789 29.6904 44.9292 33.3255 43.1378 36.8975C40.5776 42.0043 36.2891 47.0267 33.5622 49.7545C33.242 50.0748 32.7215 50.0748 32.4011 49.7545L32.394 49.7474C29.6093 46.9596 25.2841 41.9157 22.7525 36.7724C20.9782 33.1688 20.0775 29.4951 21.1409 26.4276C22.0042 23.9407 23.6258 21.81 25.7273 20.3159C27.777 18.8574 30.2803 18 32.9816 18ZM39.384 21.7215C37.5884 20.4145 35.375 19.6426 32.9816 19.6426C30.6299 19.6426 28.4532 20.3861 26.677 21.6503C24.8458 22.9522 23.4357 24.8032 22.6874 26.9605C21.7886 29.55 22.6222 32.7997 24.2216 36.0472C26.4898 40.6546 30.2853 45.2102 32.9816 48.0011C35.6292 45.2559 39.3881 40.7278 41.6756 36.1662C43.2912 32.942 44.1687 29.723 43.3512 27.1863C42.6366 24.9711 41.2293 23.0651 39.384 21.7215Z" fill="#F8644A"/>
<path d="M32.9814 22.8423C34.7466 22.8423 36.3449 23.5583 37.5018 24.7159C38.6589 25.8733 39.3746 27.4721 39.3746 29.2378C39.3746 31.0034 38.6589 32.6023 37.5018 33.7597C36.3449 34.9173 34.7466 35.6323 32.9814 35.6323C31.2165 35.6323 29.6182 34.9173 28.4611 33.7597C27.3041 32.6023 26.5884 31.0034 26.5884 29.2378C26.5884 27.4721 27.3041 25.8733 28.4611 24.7159C29.6182 23.5583 31.2165 22.8423 32.9814 22.8423ZM36.3407 25.8773C35.4807 25.0168 34.293 24.4849 32.9814 24.4849C31.6699 24.4849 30.4824 25.0168 29.6222 25.8773C28.7631 26.7367 28.2313 27.9247 28.2313 29.2378C28.2313 30.5498 28.7631 31.7378 29.6222 32.5983C30.4824 33.4577 31.6699 33.9897 32.9814 33.9897C34.293 33.9897 35.4807 33.4577 36.3407 32.5983C37.2009 31.7378 37.7316 30.5498 37.7316 29.2378C37.7316 27.9247 37.2009 26.7367 36.3407 25.8773Z" fill="#F8644A"/>
<path fill-rule="evenodd" clip-rule="evenodd" d="M32.9814 35.6322C31.2164 35.6322 29.6181 34.9173 28.461 33.7597C27.3041 32.6023 26.5883 31.0034 26.5883 29.2378C26.5883 27.4721 27.3041 25.8733 28.461 24.7159C29.6181 23.5583 31.2164 22.8423 32.9814 22.8423C34.7465 22.8423 36.3448 23.5583 37.5018 24.7159C38.6589 25.8733 39.3746 27.4721 39.3746 29.2378C39.3746 31.0034 38.6589 32.6023 37.5018 33.7597C36.3448 34.9173 34.7465 35.6322 32.9814 35.6322ZM39.3837 21.7214C37.5882 20.4145 35.3747 19.6426 32.9814 19.6426C30.6297 19.6426 28.453 20.3861 26.6768 21.6503C24.8456 22.9521 23.4354 24.8032 22.6871 26.9605C21.7883 29.55 22.622 32.7997 24.2213 36.0472C26.4896 40.6546 30.2851 45.2102 32.9814 48.0011C35.6289 45.2559 39.3879 40.7278 41.6754 36.1662C43.291 32.942 44.1684 29.723 43.351 27.1863C42.6363 24.9711 41.2291 23.0651 39.3837 21.7214Z" fill="#F8644A"/>
</g>
<defs>
<clipPath id="clip0_49_22">
<rect width="32" height="32" fill="white" transform="translate(17 18)"/>
</clipPath>
</defs>
</svg>
