<svg width="66" height="66" viewBox="0 0 66 66" fill="none" xmlns="http://www.w3.org/2000/svg">
<circle cx="33" cy="33" r="33" fill="#FFF6E3"/>
<path d="M18.923 41.4399C18.7794 41.5837 18.6837 41.7753 18.6837 42.0148L18.6357 46.805H20.2634L20.3111 44.0266C23.4707 47.5715 27.9704 49.4876 32.566 49.4876C34.9596 49.4876 37.353 48.9606 39.603 47.9067C46.4006 44.6015 50.1346 36.8892 48.4112 29.5121C48.3154 29.081 47.8846 28.7936 47.4537 28.8895C47.0229 28.9852 46.7357 29.4164 46.8314 29.8475C48.3154 36.5059 44.9646 43.4998 38.837 46.4696C32.9011 49.3439 25.6248 47.811 21.3644 42.829L24.3324 42.877V41.2483L19.4974 41.2004C19.306 41.2004 19.0667 41.2483 18.923 41.4399Z" fill="#F5BA3C"/>
<path d="M16.5773 36.9371C16.673 37.3203 17.0081 37.5598 17.3433 37.5598C17.3911 37.5598 17.4868 37.5598 17.5347 37.5598C17.9654 37.4641 18.2527 37.0328 18.157 36.6017C16.5773 29.9434 19.9283 22.9974 26.0556 20.0274C31.9916 17.1532 39.1722 18.6862 43.4805 23.5723H39.8423V25.2009H44.6772C45.108 25.2009 45.491 24.8178 45.491 24.3865V19.5484H43.8633V21.6562C39.0286 16.8658 31.5607 15.5246 25.3376 18.5425C18.54 21.7998 14.854 29.5601 16.5773 36.9371Z" fill="#F5BA3C"/>
<path d="M32.2791 42.8769C37.497 42.8769 41.7576 38.6137 41.7576 33.3922C41.7576 28.1709 37.497 23.9075 32.2791 23.9075C27.0613 23.9075 22.8008 28.1709 22.8008 33.3922C22.8008 38.6137 27.0613 42.8769 32.2791 42.8769ZM33.811 34.4461L31.5133 33.9671L30.4123 33.7276L30.2207 33.6797L30.125 33.6317C29.024 33.057 28.4495 32.3385 28.4495 31.5241V31.4282C28.4495 29.9911 29.79 28.8415 31.4654 28.8415H31.6568V27.7398H33.2844V28.8415C34.912 28.8894 36.2524 30.0391 36.2524 31.4282H34.6248C34.6248 30.9014 34.0024 30.4701 33.2366 30.4701H31.4654C30.6994 30.4701 30.0771 30.9014 30.0771 31.4282V31.5241C30.0771 31.572 30.2207 31.8115 30.7951 32.1467L32.5664 32.4821L34.2897 32.8175L34.4334 32.8652L34.5291 32.9132C35.9653 33.6317 36.2524 34.4941 36.2524 35.0688V35.1647C36.2524 36.6017 34.96 37.7513 33.3323 37.7513V38.9489H31.7047V37.7993H31.5133C29.8377 37.7993 28.4974 36.6497 28.4974 35.2126H30.125C30.125 35.7396 30.7473 36.1706 31.5133 36.1706H33.2844C34.0504 36.1706 34.6727 35.7396 34.6727 35.2126V35.1167C34.5291 35.0688 34.4334 34.7815 33.811 34.4461Z" fill="#F5BA3C"/>
</svg>
