<svg width="66" height="66" viewBox="0 0 66 66" fill="none" xmlns="http://www.w3.org/2000/svg">
<circle cx="33" cy="33" r="33" fill="#FFE8F2"/>
<g clip-path="url(#clip0_49_55)">
<path d="M32.8264 47.0937C33.8316 47.2021 34.8896 46.9532 35.7599 46.3994C36.3812 46.0039 37.1607 45.5147 38.0369 44.9521C41.4364 42.8105 47.7692 38.8028 48.1502 38.3076C48.3055 37.9942 48.3202 37.543 48.1766 37.2061C48.1034 37.0478 47.9743 36.8575 47.7224 36.7843C47.3736 36.6759 47.0249 36.878 46.6703 37.0976C46.1663 37.4111 45.6652 37.6953 45.1376 37.9796C44.5866 38.296 43.8306 38.7354 42.9954 39.2392C41.703 39.9951 40.2524 40.8448 38.9366 41.5859C38.9366 41.6006 38.9484 41.6006 38.9484 41.6123C39.0919 41.9726 39.0567 42.377 38.8545 42.7491C38.6025 43.2324 38.0984 43.587 37.5504 43.707C37.3951 43.7334 37.2369 43.7422 37.0816 43.7422C36.6272 43.7422 36.173 43.622 35.7306 43.502C35.5869 43.4668 35.4404 43.414 35.2998 43.3936C34.4763 43.1914 31.9589 42.6025 31.1091 42.459C30.942 42.4238 30.8336 42.2656 30.857 42.1103C30.8893 41.9434 31.0504 41.835 31.2057 41.8584C32.0527 42.0107 34.4734 42.5733 35.4287 42.8018C35.5841 42.837 35.7306 42.875 35.8858 42.9219C36.3987 43.0625 36.9497 43.209 37.4303 43.1007C37.7995 43.0303 38.16 42.7666 38.3271 42.4531C38.4149 42.2979 38.494 42.0723 38.3856 41.8203C38.2537 41.4834 37.8729 41.3399 37.4772 41.1817C36.9263 40.9707 36.3723 40.7627 35.8624 40.5372C35.2675 40.2822 34.4264 39.96 33.4945 39.5909C32.0468 39.0283 30.4146 38.3809 28.9931 37.7716C27.607 37.1826 26.0129 37.291 24.7292 38.0849L20.7202 40.587L23.9644 46.2207L32.8264 47.0937Z" fill="#FF7EB6"/>
<path d="M16.4121 40.7246L21.7633 50L24.5179 48.4063L19.1639 39.1308L16.4121 40.7246Z" fill="#FF7EB6"/>
<path d="M28.8172 28.6455L36.9231 36.7578L45.029 28.6455L46.8986 26.7794C49.1289 24.5557 49.1289 20.9024 46.8986 18.6729C45.788 17.5567 44.314 17 42.8399 17C41.3775 17 39.9064 17.5567 38.7928 18.6729L36.9231 20.5421L35.0563 18.6729C33.9398 17.5567 32.4717 17 31.0063 17C29.5323 17 28.0611 17.5567 26.9475 18.6729C24.7174 20.8965 24.7174 24.5498 26.9475 26.7794L28.8172 28.6455Z" fill="#FF7EB6"/>
</g>
<defs>
<clipPath id="clip0_49_55">
<rect width="33" height="33" fill="white" transform="translate(16 17)"/>
</clipPath>
</defs>
</svg>
