<svg width="66" height="66" viewBox="0 0 66 66" fill="none" xmlns="http://www.w3.org/2000/svg">
<circle cx="33" cy="33" r="33" fill="#F3EFFA"/>
<path d="M44.1087 27.9746C41.2395 29.1702 38.2497 29.9261 35.1862 30.2336L36.6304 27.7321L41.5552 28.0278C42.1022 28.0606 42.5724 27.6438 42.6052 27.0967C42.638 26.5497 42.2212 26.0797 41.6742 26.0468L37.7398 25.8106L38.6149 24.2949L43.5398 24.5905C44.0868 24.6234 44.5569 24.2065 44.5897 23.6595C44.6225 23.1125 44.2057 22.6425 43.6587 22.6096L39.7243 22.3734L40.8234 20.4697C41.9194 18.5712 44.3469 17.9208 46.2453 19.0168C48.1437 20.1129 48.7941 22.5403 47.698 24.4387L46.1469 27.1254L44.1087 27.9746Z" fill="#AE80FF"/>
<path d="M32.0235 30.3917C30.7068 30.3917 29.4006 30.3104 28.1082 30.149C28.0735 29.904 28.0544 29.654 28.0544 29.3994C28.0544 26.4766 30.4237 24.1073 33.3465 24.1073C34.3199 24.1073 35.2311 24.3712 36.0146 24.8297L32.809 30.382C32.5476 30.3884 32.2858 30.3917 32.0235 30.3917Z" fill="#AE80FF"/>
<path d="M26.7701 26.2862C26.0369 24.3471 25.9026 22.888 25.9006 22.8657C25.8541 22.3197 25.3737 21.916 24.8279 21.961C24.2819 22.0074 23.8768 22.4877 23.9233 23.0338C23.9354 23.1763 24.2109 26.1711 26.0711 29.4672C26.0722 29.5882 26.0771 29.7084 26.0842 29.828C23.9876 29.4246 21.9336 28.8062 19.9379 27.9747L18.7435 27.477C18.9005 27.0923 19.1193 26.7338 19.3935 26.4175C18.0464 25.8203 17.1392 24.479 17.1392 22.9497C17.1392 20.8524 18.8455 19.1461 20.9429 19.1461C21.2752 19.1461 21.6042 19.1906 21.9262 19.2789C22.376 17.6585 23.8497 16.5 25.5735 16.5C27.2523 16.5 28.7058 17.5945 29.1955 19.1634C29.3125 19.1518 29.4278 19.1461 29.5425 19.1461C31.3563 19.1461 32.8766 20.4225 33.2549 22.124C30.3947 22.1594 27.9267 23.8532 26.7701 26.2862Z" fill="#AE80FF"/>
<path d="M19.1747 29.8067C23.267 31.5119 27.5899 32.3764 32.0233 32.3764C36.4567 32.3764 40.7796 31.5119 44.872 29.8067C45.5681 29.5167 46.3205 30.0785 46.2402 30.8284C45.9096 33.9137 44.7131 45.2013 44.4454 47.7091C44.2835 49.2258 43.0109 50.3696 41.4854 50.3696H22.5613C21.0357 50.3696 19.7633 49.2258 19.6013 47.709C19.3336 45.2013 18.1371 33.9136 17.8065 30.8283C17.7261 30.0785 18.4786 29.5167 19.1747 29.8067ZM24.4159 43.7545C24.4159 44.3025 24.8602 44.7467 25.4082 44.7467H38.6385C39.1865 44.7467 39.6307 44.3025 39.6307 43.7545V38.4624C39.6307 37.9144 39.1865 37.4701 38.6385 37.4701H25.4082C24.8602 37.4701 24.4159 37.9144 24.4159 38.4624V43.7545Z" fill="#AE80FF"/>
<path d="M37.6465 39.4546H26.4008V42.7622H37.6465V39.4546Z" fill="#AE80FF"/>
</svg>
