<svg width="342" height="158" viewBox="0 0 342 158" fill="none" xmlns="http://www.w3.org/2000/svg">
<mask id="mask0_136_3383" style="mask-type:alpha" maskUnits="userSpaceOnUse" x="0" y="0" width="342" height="158">
<rect width="342" height="158" rx="16" fill="#D9D9D9"/>
</mask>
<g mask="url(#mask0_136_3383)">
<ellipse cx="551.956" cy="79.5" rx="380.956" ry="376.5" fill="#FF8181"/>
<path opacity="0.8" d="M202.207 38V29.6H203.479L207.691 35.924V29.6H208.963V38H207.691L203.479 31.676V38H202.207ZM213.404 38.144C212.82 38.144 212.3 38.016 211.844 37.76C211.396 37.496 211.044 37.132 210.788 36.668C210.532 36.204 210.404 35.664 210.404 35.048C210.404 34.424 210.528 33.876 210.776 33.404C211.032 32.932 211.384 32.564 211.832 32.3C212.288 32.036 212.816 31.904 213.416 31.904C214 31.904 214.508 32.036 214.94 32.3C215.372 32.556 215.708 32.9 215.948 33.332C216.188 33.764 216.308 34.24 216.308 34.76C216.308 34.84 216.304 34.928 216.296 35.024C216.296 35.112 216.292 35.212 216.284 35.324H211.652C211.692 35.9 211.88 36.34 212.216 36.644C212.56 36.94 212.956 37.088 213.404 37.088C213.764 37.088 214.064 37.008 214.304 36.848C214.552 36.68 214.736 36.456 214.856 36.176H216.128C215.968 36.736 215.648 37.204 215.168 37.58C214.696 37.956 214.108 38.144 213.404 38.144ZM213.404 32.948C212.98 32.948 212.604 33.076 212.276 33.332C211.948 33.58 211.748 33.956 211.676 34.46H215.036C215.012 33.996 214.848 33.628 214.544 33.356C214.24 33.084 213.86 32.948 213.404 32.948ZM218.581 38L216.829 32.048H218.101L219.253 36.536L220.549 32.048H221.965L223.261 36.536L224.413 32.048H225.685L223.933 38H222.625L221.257 33.32L219.889 38H218.581ZM232.949 38.144C232.349 38.144 231.805 38.028 231.317 37.796C230.837 37.556 230.453 37.192 230.165 36.704C229.885 36.216 229.745 35.596 229.745 34.844V29.6H231.017V34.856C231.017 35.592 231.193 36.132 231.545 36.476C231.897 36.82 232.373 36.992 232.973 36.992C233.565 36.992 234.037 36.82 234.389 36.476C234.741 36.132 234.917 35.592 234.917 34.856V29.6H236.189V34.844C236.189 35.596 236.041 36.216 235.745 36.704C235.457 37.192 235.065 37.556 234.569 37.796C234.081 38.028 233.541 38.144 232.949 38.144ZM240.148 38.144C239.396 38.144 238.776 37.96 238.288 37.592C237.8 37.224 237.52 36.736 237.448 36.128H238.732C238.796 36.4 238.948 36.636 239.188 36.836C239.428 37.028 239.744 37.124 240.136 37.124C240.52 37.124 240.8 37.044 240.976 36.884C241.152 36.724 241.24 36.54 241.24 36.332C241.24 36.028 241.116 35.824 240.868 35.72C240.628 35.608 240.292 35.508 239.86 35.42C239.524 35.348 239.188 35.252 238.852 35.132C238.524 35.012 238.248 34.844 238.024 34.628C237.808 34.404 237.7 34.104 237.7 33.728C237.7 33.208 237.9 32.776 238.3 32.432C238.7 32.08 239.26 31.904 239.98 31.904C240.644 31.904 241.18 32.064 241.588 32.384C242.004 32.704 242.248 33.156 242.32 33.74H241.096C241.056 33.484 240.936 33.284 240.736 33.14C240.544 32.996 240.284 32.924 239.956 32.924C239.636 32.924 239.388 32.992 239.212 33.128C239.036 33.256 238.948 33.424 238.948 33.632C238.948 33.84 239.068 34.004 239.308 34.124C239.556 34.244 239.88 34.352 240.28 34.448C240.68 34.536 241.048 34.64 241.384 34.76C241.728 34.872 242.004 35.04 242.212 35.264C242.42 35.488 242.524 35.816 242.524 36.248C242.532 36.792 242.32 37.244 241.888 37.604C241.464 37.964 240.884 38.144 240.148 38.144ZM246.697 38.144C246.113 38.144 245.593 38.016 245.137 37.76C244.689 37.496 244.337 37.132 244.081 36.668C243.825 36.204 243.697 35.664 243.697 35.048C243.697 34.424 243.821 33.876 244.069 33.404C244.325 32.932 244.677 32.564 245.125 32.3C245.581 32.036 246.109 31.904 246.709 31.904C247.293 31.904 247.801 32.036 248.233 32.3C248.665 32.556 249.001 32.9 249.241 33.332C249.481 33.764 249.601 34.24 249.601 34.76C249.601 34.84 249.597 34.928 249.589 35.024C249.589 35.112 249.585 35.212 249.577 35.324H244.945C244.985 35.9 245.173 36.34 245.509 36.644C245.853 36.94 246.249 37.088 246.697 37.088C247.057 37.088 247.357 37.008 247.597 36.848C247.845 36.68 248.029 36.456 248.149 36.176H249.421C249.261 36.736 248.941 37.204 248.461 37.58C247.989 37.956 247.401 38.144 246.697 38.144ZM246.697 32.948C246.273 32.948 245.897 33.076 245.569 33.332C245.241 33.58 245.041 33.956 244.969 34.46H248.329C248.305 33.996 248.141 33.628 247.837 33.356C247.533 33.084 247.153 32.948 246.697 32.948ZM250.921 38V32.048H252.061L252.169 33.176C252.377 32.784 252.665 32.476 253.033 32.252C253.409 32.02 253.861 31.904 254.389 31.904V33.236H254.041C253.689 33.236 253.373 33.296 253.093 33.416C252.821 33.528 252.601 33.724 252.433 34.004C252.273 34.276 252.193 34.656 252.193 35.144V38H250.921ZM262.427 38.144C261.595 38.144 260.867 37.96 260.243 37.592C259.619 37.224 259.131 36.716 258.779 36.068C258.427 35.412 258.251 34.656 258.251 33.8C258.251 32.944 258.427 32.192 258.779 31.544C259.131 30.888 259.619 30.376 260.243 30.008C260.867 29.64 261.595 29.456 262.427 29.456C263.259 29.456 263.987 29.64 264.611 30.008C265.235 30.376 265.719 30.888 266.063 31.544C266.415 32.192 266.591 32.944 266.591 33.8C266.591 34.656 266.415 35.412 266.063 36.068C265.719 36.716 265.235 37.224 264.611 37.592C263.987 37.96 263.259 38.144 262.427 38.144ZM262.427 37.004C263.003 37.004 263.503 36.876 263.927 36.62C264.359 36.364 264.695 35.996 264.935 35.516C265.175 35.036 265.295 34.464 265.295 33.8C265.295 33.136 265.175 32.564 264.935 32.084C264.695 31.604 264.359 31.236 263.927 30.98C263.503 30.724 263.003 30.596 262.427 30.596C261.851 30.596 261.347 30.724 260.915 30.98C260.483 31.236 260.147 31.604 259.907 32.084C259.675 32.564 259.559 33.136 259.559 33.8C259.559 34.464 259.675 35.036 259.907 35.516C260.147 35.996 260.483 36.364 260.915 36.62C261.347 36.876 261.851 37.004 262.427 37.004ZM268.26 38V33.116H267.408V32.048H268.26V31.184C268.26 30.536 268.42 30.072 268.74 29.792C269.068 29.504 269.528 29.36 270.12 29.36H270.744V30.44H270.312C270.032 30.44 269.832 30.5 269.712 30.62C269.592 30.732 269.532 30.924 269.532 31.196V32.048H270.9V33.116H269.532V38H268.26ZM272.408 38V33.116H271.556V32.048H272.408V31.184C272.408 30.536 272.568 30.072 272.888 29.792C273.216 29.504 273.676 29.36 274.268 29.36H274.892V30.44H274.46C274.18 30.44 273.98 30.5 273.86 30.62C273.74 30.732 273.68 30.924 273.68 31.196V32.048H275.048V33.116H273.68V38H272.408ZM278.806 38.144C278.222 38.144 277.702 38.016 277.246 37.76C276.798 37.496 276.446 37.132 276.19 36.668C275.934 36.204 275.806 35.664 275.806 35.048C275.806 34.424 275.93 33.876 276.178 33.404C276.434 32.932 276.786 32.564 277.234 32.3C277.69 32.036 278.218 31.904 278.818 31.904C279.402 31.904 279.91 32.036 280.342 32.3C280.774 32.556 281.11 32.9 281.35 33.332C281.59 33.764 281.71 34.24 281.71 34.76C281.71 34.84 281.706 34.928 281.698 35.024C281.698 35.112 281.694 35.212 281.686 35.324H277.054C277.094 35.9 277.282 36.34 277.618 36.644C277.962 36.94 278.358 37.088 278.806 37.088C279.166 37.088 279.466 37.008 279.706 36.848C279.954 36.68 280.138 36.456 280.258 36.176H281.53C281.37 36.736 281.05 37.204 280.57 37.58C280.098 37.956 279.51 38.144 278.806 38.144ZM278.806 32.948C278.382 32.948 278.006 33.076 277.678 33.332C277.35 33.58 277.15 33.956 277.078 34.46H280.438C280.414 33.996 280.25 33.628 279.946 33.356C279.642 33.084 279.262 32.948 278.806 32.948ZM283.03 38V32.048H284.17L284.278 33.176C284.486 32.784 284.774 32.476 285.142 32.252C285.518 32.02 285.97 31.904 286.498 31.904V33.236H286.15C285.798 33.236 285.482 33.296 285.202 33.416C284.93 33.528 284.71 33.724 284.542 34.004C284.382 34.276 284.302 34.656 284.302 35.144V38H283.03ZM289.965 38.144C289.213 38.144 288.593 37.96 288.105 37.592C287.617 37.224 287.337 36.736 287.265 36.128H288.549C288.613 36.4 288.765 36.636 289.005 36.836C289.245 37.028 289.561 37.124 289.953 37.124C290.337 37.124 290.617 37.044 290.793 36.884C290.969 36.724 291.057 36.54 291.057 36.332C291.057 36.028 290.933 35.824 290.685 35.72C290.445 35.608 290.109 35.508 289.677 35.42C289.341 35.348 289.005 35.252 288.669 35.132C288.341 35.012 288.065 34.844 287.841 34.628C287.625 34.404 287.517 34.104 287.517 33.728C287.517 33.208 287.717 32.776 288.117 32.432C288.517 32.08 289.077 31.904 289.797 31.904C290.461 31.904 290.997 32.064 291.405 32.384C291.821 32.704 292.065 33.156 292.137 33.74H290.913C290.873 33.484 290.753 33.284 290.553 33.14C290.361 32.996 290.101 32.924 289.773 32.924C289.453 32.924 289.205 32.992 289.029 33.128C288.853 33.256 288.765 33.424 288.765 33.632C288.765 33.84 288.885 34.004 289.125 34.124C289.373 34.244 289.697 34.352 290.097 34.448C290.497 34.536 290.865 34.64 291.201 34.76C291.545 34.872 291.821 35.04 292.029 35.264C292.237 35.488 292.341 35.816 292.341 36.248C292.349 36.792 292.137 37.244 291.705 37.604C291.281 37.964 290.701 38.144 289.965 38.144Z" fill="white"/>
<path d="M213.355 78.384C211.243 78.384 209.398 77.904 207.819 76.944C206.24 75.984 205.014 74.64 204.139 72.912C203.264 71.184 202.827 69.168 202.827 66.864C202.827 64.5814 203.275 62.5654 204.171 60.816C205.067 59.0667 206.336 57.7014 207.979 56.72C209.643 55.7174 211.606 55.216 213.867 55.216C216.427 55.216 218.56 55.8347 220.267 57.072C221.974 58.3094 223.083 60.016 223.595 62.192H219.755C219.414 60.9974 218.742 60.0587 217.739 59.376C216.736 58.6934 215.446 58.352 213.867 58.352C211.52 58.352 209.675 59.1094 208.331 60.624C206.987 62.1387 206.315 64.2294 206.315 66.896C206.315 69.5627 206.976 71.6427 208.299 73.136C209.622 74.6294 211.382 75.376 213.579 75.376C215.798 75.376 217.462 74.7467 218.571 73.488C219.702 72.2294 220.363 70.5547 220.555 68.464H214.475V65.84H223.979V78H220.875L220.587 74.704C219.84 75.8774 218.902 76.784 217.771 77.424C216.64 78.064 215.168 78.384 213.355 78.384ZM234.432 78.384C232.874 78.384 231.488 78.0427 230.272 77.36C229.077 76.656 228.138 75.6854 227.456 74.448C226.773 73.2107 226.432 71.7707 226.432 70.128C226.432 68.464 226.762 67.0027 227.424 65.744C228.106 64.4854 229.045 63.504 230.24 62.8C231.456 62.096 232.864 61.744 234.464 61.744C236.021 61.744 237.376 62.096 238.528 62.8C239.68 63.4827 240.576 64.4 241.216 65.552C241.856 66.704 242.176 67.9734 242.176 69.36C242.176 69.5734 242.165 69.808 242.144 70.064C242.144 70.2987 242.133 70.5654 242.112 70.864H229.76C229.866 72.4 230.368 73.5734 231.264 74.384C232.181 75.1734 233.237 75.568 234.432 75.568C235.392 75.568 236.192 75.3547 236.832 74.928C237.493 74.48 237.984 73.8827 238.304 73.136H241.696C241.269 74.6294 240.416 75.8774 239.136 76.88C237.877 77.8827 236.309 78.384 234.432 78.384ZM234.432 64.528C233.301 64.528 232.298 64.8694 231.424 65.552C230.549 66.2134 230.016 67.216 229.824 68.56H238.784C238.72 67.3227 238.282 66.3414 237.472 65.616C236.661 64.8907 235.648 64.528 234.432 64.528ZM250.985 78C249.428 78 248.19 77.6267 247.273 76.88C246.356 76.112 245.897 74.7574 245.897 72.816V64.976H243.177V62.128H245.897L246.313 58.096H249.289V62.128H253.769V64.976H249.289V72.816C249.289 73.6907 249.47 74.2987 249.833 74.64C250.217 74.96 250.868 75.12 251.785 75.12H253.609V78H250.985ZM271.345 78.384C269.766 78.384 268.401 78.1067 267.249 77.552C266.097 76.976 265.18 76.1974 264.497 75.216C263.836 74.2134 263.43 73.0827 263.281 71.824H266.609C266.822 72.8907 267.356 73.776 268.209 74.48C269.062 75.1627 270.118 75.504 271.377 75.504C272.316 75.504 273.126 75.28 273.809 74.832C274.492 74.3627 275.025 73.744 275.409 72.976C275.793 72.208 275.985 71.344 275.985 70.384C275.985 68.8694 275.558 67.664 274.705 66.768C273.852 65.8507 272.774 65.392 271.473 65.392C270.364 65.392 269.414 65.6587 268.625 66.192C267.836 66.704 267.26 67.3547 266.897 68.144H263.665L265.585 55.6H277.681V58.576H268.145L266.993 64.56C267.484 64.0054 268.156 63.5467 269.009 63.184C269.884 62.8 270.865 62.608 271.953 62.608C273.468 62.608 274.769 62.96 275.857 63.664C276.945 64.3467 277.777 65.2747 278.353 66.448C278.95 67.6214 279.249 68.9227 279.249 70.352C279.249 71.8454 278.929 73.2 278.289 74.416C277.649 75.632 276.732 76.6027 275.537 77.328C274.364 78.032 272.966 78.384 271.345 78.384ZM286.616 66.288C285.613 66.288 284.706 66.064 283.896 65.616C283.106 65.168 282.477 64.5387 282.008 63.728C281.538 62.896 281.304 61.904 281.304 60.752C281.304 59.6214 281.538 58.6507 282.008 57.84C282.477 57.008 283.117 56.368 283.928 55.92C284.738 55.472 285.645 55.248 286.648 55.248C287.629 55.248 288.514 55.472 289.304 55.92C290.114 56.368 290.754 57.008 291.224 57.84C291.693 58.6507 291.928 59.6214 291.928 60.752C291.928 61.904 291.693 62.896 291.224 63.728C290.754 64.5387 290.114 65.168 289.304 65.616C288.514 66.064 287.618 66.288 286.616 66.288ZM285.016 78L297.848 55.6H301.176L288.376 78H285.016ZM286.616 63.856C287.298 63.856 287.885 63.6 288.376 63.088C288.888 62.5547 289.144 61.776 289.144 60.752C289.144 59.728 288.898 58.96 288.408 58.448C287.917 57.9147 287.32 57.648 286.616 57.648C285.933 57.648 285.336 57.9147 284.824 58.448C284.312 58.96 284.056 59.728 284.056 60.752C284.056 61.776 284.301 62.5547 284.792 63.088C285.304 63.6 285.912 63.856 286.616 63.856ZM299.768 78.384C298.765 78.384 297.858 78.16 297.048 77.712C296.258 77.264 295.629 76.6347 295.16 75.824C294.69 74.992 294.456 74 294.456 72.848C294.456 71.7174 294.69 70.736 295.16 69.904C295.629 69.072 296.269 68.432 297.08 67.984C297.89 67.536 298.797 67.312 299.8 67.312C300.781 67.312 301.666 67.536 302.456 67.984C303.266 68.432 303.906 69.072 304.376 69.904C304.845 70.736 305.08 71.7174 305.08 72.848C305.08 74 304.845 74.992 304.376 75.824C303.906 76.6347 303.266 77.264 302.456 77.712C301.666 78.16 300.77 78.384 299.768 78.384ZM299.768 75.92C300.45 75.92 301.037 75.664 301.528 75.152C302.04 74.64 302.296 73.872 302.296 72.848C302.296 71.824 302.05 71.056 301.56 70.544C301.069 70.0107 300.472 69.744 299.768 69.744C299.085 69.744 298.488 70.0107 297.976 70.544C297.464 71.056 297.208 71.824 297.208 72.848C297.208 73.872 297.453 74.64 297.944 75.152C298.456 75.664 299.064 75.92 299.768 75.92Z" fill="white"/>
<rect x="201.355" y="99" width="107.254" height="30" rx="15" fill="white"/>
<path d="M219.232 119.168C218.308 119.168 217.501 118.958 216.81 118.538C216.12 118.118 215.583 117.53 215.2 116.774C214.818 116.018 214.626 115.136 214.626 114.128C214.626 113.129 214.822 112.247 215.214 111.482C215.606 110.717 216.162 110.119 216.88 109.69C217.608 109.251 218.467 109.032 219.456 109.032C220.576 109.032 221.51 109.303 222.256 109.844C223.003 110.385 223.488 111.132 223.712 112.084H222.032C221.883 111.561 221.589 111.151 221.15 110.852C220.712 110.553 220.147 110.404 219.456 110.404C218.43 110.404 217.622 110.735 217.034 111.398C216.446 112.061 216.152 112.975 216.152 114.142C216.152 115.309 216.442 116.219 217.02 116.872C217.599 117.525 218.369 117.852 219.33 117.852C220.301 117.852 221.029 117.577 221.514 117.026C222.009 116.475 222.298 115.743 222.382 114.828H219.722V113.68H223.88V119H222.522L222.396 117.558C222.07 118.071 221.659 118.468 221.164 118.748C220.67 119.028 220.026 119.168 219.232 119.168ZM225.626 119V112.056H226.956L227.082 113.372C227.324 112.915 227.66 112.555 228.09 112.294C228.528 112.023 229.056 111.888 229.672 111.888V113.442H229.266C228.855 113.442 228.486 113.512 228.16 113.652C227.842 113.783 227.586 114.011 227.39 114.338C227.203 114.655 227.11 115.099 227.11 115.668V119H225.626ZM233.296 119.168C232.708 119.168 232.223 119.07 231.84 118.874C231.457 118.678 231.173 118.421 230.986 118.104C230.799 117.777 230.706 117.423 230.706 117.04C230.706 116.368 230.967 115.836 231.49 115.444C232.013 115.052 232.759 114.856 233.73 114.856H235.55V114.73C235.55 114.189 235.401 113.783 235.102 113.512C234.813 113.241 234.435 113.106 233.968 113.106C233.557 113.106 233.198 113.209 232.89 113.414C232.591 113.61 232.409 113.904 232.344 114.296H230.86C230.907 113.792 231.075 113.363 231.364 113.008C231.663 112.644 232.036 112.369 232.484 112.182C232.941 111.986 233.441 111.888 233.982 111.888C234.953 111.888 235.704 112.145 236.236 112.658C236.768 113.162 237.034 113.853 237.034 114.73V119H235.746L235.62 117.81C235.424 118.193 235.139 118.515 234.766 118.776C234.393 119.037 233.903 119.168 233.296 119.168ZM233.59 117.964C233.991 117.964 234.327 117.871 234.598 117.684C234.878 117.488 235.093 117.231 235.242 116.914C235.401 116.597 235.499 116.247 235.536 115.864H233.884C233.296 115.864 232.876 115.967 232.624 116.172C232.381 116.377 232.26 116.634 232.26 116.942C232.26 117.259 232.377 117.511 232.61 117.698C232.853 117.875 233.179 117.964 233.59 117.964ZM242.67 119.168C242.129 119.168 241.648 119.061 241.228 118.846C240.818 118.631 240.491 118.328 240.248 117.936L240.094 119H238.764V108.92H240.248V113.134C240.472 112.807 240.78 112.518 241.172 112.266C241.564 112.014 242.068 111.888 242.684 111.888C243.356 111.888 243.949 112.047 244.462 112.364C244.976 112.681 245.377 113.115 245.666 113.666C245.965 114.217 246.114 114.842 246.114 115.542C246.114 116.242 245.965 116.867 245.666 117.418C245.377 117.959 244.976 118.389 244.462 118.706C243.949 119.014 243.352 119.168 242.67 119.168ZM242.418 117.88C243.053 117.88 243.576 117.665 243.986 117.236C244.397 116.797 244.602 116.228 244.602 115.528C244.602 115.071 244.509 114.665 244.322 114.31C244.136 113.955 243.879 113.68 243.552 113.484C243.226 113.279 242.848 113.176 242.418 113.176C241.784 113.176 241.261 113.395 240.85 113.834C240.449 114.273 240.248 114.837 240.248 115.528C240.248 116.228 240.449 116.797 240.85 117.236C241.261 117.665 241.784 117.88 242.418 117.88ZM255.825 119.168C254.854 119.168 254.005 118.953 253.277 118.524C252.549 118.095 251.979 117.502 251.569 116.746C251.158 115.981 250.953 115.099 250.953 114.1C250.953 113.101 251.158 112.224 251.569 111.468C251.979 110.703 252.549 110.105 253.277 109.676C254.005 109.247 254.854 109.032 255.825 109.032C256.795 109.032 257.645 109.247 258.373 109.676C259.101 110.105 259.665 110.703 260.067 111.468C260.477 112.224 260.683 113.101 260.683 114.1C260.683 115.099 260.477 115.981 260.067 116.746C259.665 117.502 259.101 118.095 258.373 118.524C257.645 118.953 256.795 119.168 255.825 119.168ZM255.825 117.838C256.497 117.838 257.08 117.689 257.575 117.39C258.079 117.091 258.471 116.662 258.751 116.102C259.031 115.542 259.171 114.875 259.171 114.1C259.171 113.325 259.031 112.658 258.751 112.098C258.471 111.538 258.079 111.109 257.575 110.81C257.08 110.511 256.497 110.362 255.825 110.362C255.153 110.362 254.565 110.511 254.061 110.81C253.557 111.109 253.165 111.538 252.885 112.098C252.614 112.658 252.479 113.325 252.479 114.1C252.479 114.875 252.614 115.542 252.885 116.102C253.165 116.662 253.557 117.091 254.061 117.39C254.565 117.689 255.153 117.838 255.825 117.838ZM262.63 119V113.302H261.636V112.056H262.63V111.048C262.63 110.292 262.816 109.751 263.19 109.424C263.572 109.088 264.109 108.92 264.8 108.92H265.528V110.18H265.024C264.697 110.18 264.464 110.25 264.324 110.39C264.184 110.521 264.114 110.745 264.114 111.062V112.056H265.71V113.302H264.114V119H262.63ZM267.47 119V113.302H266.476V112.056H267.47V111.048C267.47 110.292 267.656 109.751 268.03 109.424C268.412 109.088 268.949 108.92 269.64 108.92H270.368V110.18H269.864C269.537 110.18 269.304 110.25 269.164 110.39C269.024 110.521 268.954 110.745 268.954 111.062V112.056H270.55V113.302H268.954V119H267.47ZM274.934 119.168C274.253 119.168 273.646 119.019 273.114 118.72C272.591 118.412 272.181 117.987 271.882 117.446C271.583 116.905 271.434 116.275 271.434 115.556C271.434 114.828 271.579 114.189 271.868 113.638C272.167 113.087 272.577 112.658 273.1 112.35C273.632 112.042 274.248 111.888 274.948 111.888C275.629 111.888 276.222 112.042 276.726 112.35C277.23 112.649 277.622 113.05 277.902 113.554C278.182 114.058 278.322 114.613 278.322 115.22C278.322 115.313 278.317 115.416 278.308 115.528C278.308 115.631 278.303 115.747 278.294 115.878H272.89C272.937 116.55 273.156 117.063 273.548 117.418C273.949 117.763 274.411 117.936 274.934 117.936C275.354 117.936 275.704 117.843 275.984 117.656C276.273 117.46 276.488 117.199 276.628 116.872H278.112C277.925 117.525 277.552 118.071 276.992 118.51C276.441 118.949 275.755 119.168 274.934 119.168ZM274.934 113.106C274.439 113.106 274.001 113.255 273.618 113.554C273.235 113.843 273.002 114.282 272.918 114.87H276.838C276.81 114.329 276.619 113.899 276.264 113.582C275.909 113.265 275.466 113.106 274.934 113.106ZM279.862 119V112.056H281.192L281.318 113.372C281.56 112.915 281.896 112.555 282.326 112.294C282.764 112.023 283.292 111.888 283.908 111.888V113.442H283.502C283.091 113.442 282.722 113.512 282.396 113.652C282.078 113.783 281.822 114.011 281.626 114.338C281.439 114.655 281.346 115.099 281.346 115.668V119H279.862Z" fill="#6BA821"/>
<path d="M291.416 109.156L295.326 113.313C295.436 113.449 295.518 113.613 295.518 113.75C295.518 113.914 295.436 114.078 295.326 114.215L291.416 118.371C291.17 118.645 290.76 118.645 290.486 118.398C290.213 118.152 290.213 117.742 290.459 117.469L293.959 113.75L290.459 110.059C290.213 109.785 290.213 109.375 290.486 109.129C290.76 108.883 291.17 108.883 291.416 109.156Z" fill="#6BA821"/>
</g>
</svg>
