<svg width="342" height="158" viewBox="0 0 342 158" fill="none" xmlns="http://www.w3.org/2000/svg">
<mask id="mask0_136_3407" style="mask-type:alpha" maskUnits="userSpaceOnUse" x="0" y="0" width="342" height="158">
<rect width="342" height="158" rx="16" fill="#D9D9D9"/>
</mask>
<g mask="url(#mask0_136_3407)">
<ellipse cx="551.956" cy="78.5" rx="380.956" ry="376.5" fill="#23AA49"/>
<path opacity="0.8" d="M203.071 38V31.04L201.715 31.352V30.416L203.575 29.6H204.391V38H203.071ZM208.426 38.144C207.674 38.144 207.054 37.96 206.566 37.592C206.078 37.224 205.798 36.736 205.726 36.128H207.01C207.074 36.4 207.226 36.636 207.466 36.836C207.706 37.028 208.022 37.124 208.414 37.124C208.798 37.124 209.078 37.044 209.254 36.884C209.43 36.724 209.518 36.54 209.518 36.332C209.518 36.028 209.394 35.824 209.146 35.72C208.906 35.608 208.57 35.508 208.138 35.42C207.802 35.348 207.466 35.252 207.13 35.132C206.802 35.012 206.526 34.844 206.302 34.628C206.086 34.404 205.978 34.104 205.978 33.728C205.978 33.208 206.178 32.776 206.578 32.432C206.978 32.08 207.538 31.904 208.258 31.904C208.922 31.904 209.458 32.064 209.866 32.384C210.282 32.704 210.526 33.156 210.598 33.74H209.374C209.334 33.484 209.214 33.284 209.014 33.14C208.822 32.996 208.562 32.924 208.234 32.924C207.914 32.924 207.666 32.992 207.49 33.128C207.314 33.256 207.226 33.424 207.226 33.632C207.226 33.84 207.346 34.004 207.586 34.124C207.834 34.244 208.158 34.352 208.558 34.448C208.958 34.536 209.326 34.64 209.662 34.76C210.006 34.872 210.282 35.04 210.49 35.264C210.698 35.488 210.802 35.816 210.802 36.248C210.81 36.792 210.598 37.244 210.166 37.604C209.742 37.964 209.162 38.144 208.426 38.144ZM214.464 38C213.88 38 213.416 37.86 213.072 37.58C212.728 37.292 212.556 36.784 212.556 36.056V33.116H211.536V32.048H212.556L212.712 30.536H213.828V32.048H215.508V33.116H213.828V36.056C213.828 36.384 213.896 36.612 214.032 36.74C214.176 36.86 214.42 36.92 214.764 36.92H215.448V38H214.464ZM219.351 38L222.447 29.6H223.839L226.911 38H225.567L224.847 35.948H221.415L220.695 38H219.351ZM221.775 34.94H224.487L223.131 31.112L221.775 34.94ZM228.034 38V32.048H229.162L229.258 33.092C229.442 32.724 229.71 32.436 230.062 32.228C230.422 32.012 230.834 31.904 231.298 31.904C232.018 31.904 232.582 32.128 232.99 32.576C233.406 33.024 233.614 33.692 233.614 34.58V38H232.354V34.712C232.354 33.56 231.882 32.984 230.938 32.984C230.466 32.984 230.074 33.152 229.762 33.488C229.458 33.824 229.306 34.304 229.306 34.928V38H228.034ZM235.112 38V32.048H236.24L236.336 33.092C236.52 32.724 236.788 32.436 237.14 32.228C237.5 32.012 237.912 31.904 238.376 31.904C239.096 31.904 239.66 32.128 240.068 32.576C240.484 33.024 240.692 33.692 240.692 34.58V38H239.432V34.712C239.432 33.56 238.96 32.984 238.016 32.984C237.544 32.984 237.152 33.152 236.84 33.488C236.536 33.824 236.384 34.304 236.384 34.928V38H235.112ZM242.91 30.92C242.67 30.92 242.47 30.848 242.31 30.704C242.158 30.552 242.082 30.364 242.082 30.14C242.082 29.916 242.158 29.732 242.31 29.588C242.47 29.436 242.67 29.36 242.91 29.36C243.15 29.36 243.346 29.436 243.498 29.588C243.658 29.732 243.738 29.916 243.738 30.14C243.738 30.364 243.658 30.552 243.498 30.704C243.346 30.848 243.15 30.92 242.91 30.92ZM242.274 38V32.048H243.546V38H242.274ZM246.893 38L244.661 32.048H245.993L247.649 36.788L249.305 32.048H250.625L248.405 38H246.893ZM254.15 38.144C253.566 38.144 253.046 38.016 252.59 37.76C252.142 37.496 251.79 37.132 251.534 36.668C251.278 36.204 251.15 35.664 251.15 35.048C251.15 34.424 251.274 33.876 251.522 33.404C251.778 32.932 252.13 32.564 252.578 32.3C253.034 32.036 253.562 31.904 254.162 31.904C254.746 31.904 255.254 32.036 255.686 32.3C256.118 32.556 256.454 32.9 256.694 33.332C256.934 33.764 257.054 34.24 257.054 34.76C257.054 34.84 257.05 34.928 257.042 35.024C257.042 35.112 257.038 35.212 257.03 35.324H252.398C252.438 35.9 252.626 36.34 252.962 36.644C253.306 36.94 253.702 37.088 254.15 37.088C254.51 37.088 254.81 37.008 255.05 36.848C255.298 36.68 255.482 36.456 255.602 36.176H256.874C256.714 36.736 256.394 37.204 255.914 37.58C255.442 37.956 254.854 38.144 254.15 38.144ZM254.15 32.948C253.726 32.948 253.35 33.076 253.022 33.332C252.694 33.58 252.494 33.956 252.422 34.46H255.782C255.758 33.996 255.594 33.628 255.29 33.356C254.986 33.084 254.606 32.948 254.15 32.948ZM258.374 38V32.048H259.514L259.622 33.176C259.83 32.784 260.118 32.476 260.486 32.252C260.862 32.02 261.314 31.904 261.842 31.904V33.236H261.494C261.142 33.236 260.826 33.296 260.546 33.416C260.274 33.528 260.054 33.724 259.886 34.004C259.726 34.276 259.646 34.656 259.646 35.144V38H258.374ZM265.308 38.144C264.556 38.144 263.936 37.96 263.448 37.592C262.96 37.224 262.68 36.736 262.608 36.128H263.892C263.956 36.4 264.108 36.636 264.348 36.836C264.588 37.028 264.904 37.124 265.296 37.124C265.68 37.124 265.96 37.044 266.136 36.884C266.312 36.724 266.4 36.54 266.4 36.332C266.4 36.028 266.276 35.824 266.028 35.72C265.788 35.608 265.452 35.508 265.02 35.42C264.684 35.348 264.348 35.252 264.012 35.132C263.684 35.012 263.408 34.844 263.184 34.628C262.968 34.404 262.86 34.104 262.86 33.728C262.86 33.208 263.06 32.776 263.46 32.432C263.86 32.08 264.42 31.904 265.14 31.904C265.804 31.904 266.34 32.064 266.748 32.384C267.164 32.704 267.408 33.156 267.48 33.74H266.256C266.216 33.484 266.096 33.284 265.896 33.14C265.704 32.996 265.444 32.924 265.116 32.924C264.796 32.924 264.548 32.992 264.372 33.128C264.196 33.256 264.108 33.424 264.108 33.632C264.108 33.84 264.228 34.004 264.468 34.124C264.716 34.244 265.04 34.352 265.44 34.448C265.84 34.536 266.208 34.64 266.544 34.76C266.888 34.872 267.164 35.04 267.372 35.264C267.58 35.488 267.684 35.816 267.684 36.248C267.692 36.792 267.48 37.244 267.048 37.604C266.624 37.964 266.044 38.144 265.308 38.144ZM271.089 38.144C270.585 38.144 270.169 38.06 269.841 37.892C269.513 37.724 269.269 37.504 269.109 37.232C268.949 36.952 268.869 36.648 268.869 36.32C268.869 35.744 269.093 35.288 269.541 34.952C269.989 34.616 270.629 34.448 271.461 34.448H273.021V34.34C273.021 33.876 272.893 33.528 272.637 33.296C272.389 33.064 272.065 32.948 271.665 32.948C271.313 32.948 271.005 33.036 270.741 33.212C270.485 33.38 270.329 33.632 270.273 33.968H269.001C269.041 33.536 269.185 33.168 269.433 32.864C269.689 32.552 270.009 32.316 270.393 32.156C270.785 31.988 271.213 31.904 271.677 31.904C272.509 31.904 273.153 32.124 273.609 32.564C274.065 32.996 274.293 33.588 274.293 34.34V38H273.189L273.081 36.98C272.913 37.308 272.669 37.584 272.349 37.808C272.029 38.032 271.609 38.144 271.089 38.144ZM271.341 37.112C271.685 37.112 271.973 37.032 272.205 36.872C272.445 36.704 272.629 36.484 272.757 36.212C272.893 35.94 272.977 35.64 273.009 35.312H271.593C271.089 35.312 270.729 35.4 270.513 35.576C270.305 35.752 270.201 35.972 270.201 36.236C270.201 36.508 270.301 36.724 270.501 36.884C270.709 37.036 270.989 37.112 271.341 37.112ZM275.776 38V32.048H276.916L277.024 33.176C277.232 32.784 277.52 32.476 277.888 32.252C278.264 32.02 278.716 31.904 279.244 31.904V33.236H278.896C278.544 33.236 278.228 33.296 277.948 33.416C277.676 33.528 277.456 33.724 277.288 34.004C277.128 34.276 277.048 34.656 277.048 35.144V38H275.776ZM281.031 40.64L282.459 37.508H282.111L279.759 32.048H281.139L282.963 36.452L284.871 32.048H286.215L282.375 40.64H281.031ZM294.208 38.144C293.376 38.144 292.648 37.96 292.024 37.592C291.4 37.224 290.912 36.716 290.56 36.068C290.208 35.412 290.032 34.656 290.032 33.8C290.032 32.944 290.208 32.192 290.56 31.544C290.912 30.888 291.4 30.376 292.024 30.008C292.648 29.64 293.376 29.456 294.208 29.456C295.04 29.456 295.768 29.64 296.392 30.008C297.016 30.376 297.5 30.888 297.844 31.544C298.196 32.192 298.372 32.944 298.372 33.8C298.372 34.656 298.196 35.412 297.844 36.068C297.5 36.716 297.016 37.224 296.392 37.592C295.768 37.96 295.04 38.144 294.208 38.144ZM294.208 37.004C294.784 37.004 295.284 36.876 295.708 36.62C296.14 36.364 296.476 35.996 296.716 35.516C296.956 35.036 297.076 34.464 297.076 33.8C297.076 33.136 296.956 32.564 296.716 32.084C296.476 31.604 296.14 31.236 295.708 30.98C295.284 30.724 294.784 30.596 294.208 30.596C293.632 30.596 293.128 30.724 292.696 30.98C292.264 31.236 291.928 31.604 291.688 32.084C291.456 32.564 291.34 33.136 291.34 33.8C291.34 34.464 291.456 35.036 291.688 35.516C291.928 35.996 292.264 36.364 292.696 36.62C293.128 36.876 293.632 37.004 294.208 37.004ZM300.041 38V33.116H299.189V32.048H300.041V31.184C300.041 30.536 300.201 30.072 300.521 29.792C300.849 29.504 301.309 29.36 301.901 29.36H302.525V30.44H302.093C301.813 30.44 301.613 30.5 301.493 30.62C301.373 30.732 301.313 30.924 301.313 31.196V32.048H302.681V33.116H301.313V38H300.041ZM304.189 38V33.116H303.337V32.048H304.189V31.184C304.189 30.536 304.349 30.072 304.669 29.792C304.997 29.504 305.457 29.36 306.049 29.36H306.673V30.44H306.241C305.961 30.44 305.761 30.5 305.641 30.62C305.521 30.732 305.461 30.924 305.461 31.196V32.048H306.829V33.116H305.461V38H304.189ZM310.588 38.144C310.004 38.144 309.484 38.016 309.028 37.76C308.58 37.496 308.228 37.132 307.972 36.668C307.716 36.204 307.588 35.664 307.588 35.048C307.588 34.424 307.712 33.876 307.96 33.404C308.216 32.932 308.568 32.564 309.016 32.3C309.472 32.036 310 31.904 310.6 31.904C311.184 31.904 311.692 32.036 312.124 32.3C312.556 32.556 312.892 32.9 313.132 33.332C313.372 33.764 313.492 34.24 313.492 34.76C313.492 34.84 313.488 34.928 313.48 35.024C313.48 35.112 313.476 35.212 313.468 35.324H308.836C308.876 35.9 309.064 36.34 309.4 36.644C309.744 36.94 310.14 37.088 310.588 37.088C310.948 37.088 311.248 37.008 311.488 36.848C311.736 36.68 311.92 36.456 312.04 36.176H313.312C313.152 36.736 312.832 37.204 312.352 37.58C311.88 37.956 311.292 38.144 310.588 38.144ZM310.588 32.948C310.164 32.948 309.788 33.076 309.46 33.332C309.132 33.58 308.932 33.956 308.86 34.46H312.22C312.196 33.996 312.032 33.628 311.728 33.356C311.424 33.084 311.044 32.948 310.588 32.948ZM314.811 38V32.048H315.951L316.059 33.176C316.267 32.784 316.555 32.476 316.923 32.252C317.299 32.02 317.751 31.904 318.279 31.904V33.236H317.931C317.579 33.236 317.263 33.296 316.983 33.416C316.711 33.528 316.491 33.724 316.323 34.004C316.163 34.276 316.083 34.656 316.083 35.144V38H314.811ZM321.746 38.144C320.994 38.144 320.374 37.96 319.886 37.592C319.398 37.224 319.118 36.736 319.046 36.128H320.33C320.394 36.4 320.546 36.636 320.786 36.836C321.026 37.028 321.342 37.124 321.734 37.124C322.118 37.124 322.398 37.044 322.574 36.884C322.75 36.724 322.838 36.54 322.838 36.332C322.838 36.028 322.714 35.824 322.466 35.72C322.226 35.608 321.89 35.508 321.458 35.42C321.122 35.348 320.786 35.252 320.45 35.132C320.122 35.012 319.846 34.844 319.622 34.628C319.406 34.404 319.298 34.104 319.298 33.728C319.298 33.208 319.498 32.776 319.898 32.432C320.298 32.08 320.858 31.904 321.578 31.904C322.242 31.904 322.778 32.064 323.186 32.384C323.602 32.704 323.846 33.156 323.918 33.74H322.694C322.654 33.484 322.534 33.284 322.334 33.14C322.142 32.996 321.882 32.924 321.554 32.924C321.234 32.924 320.986 32.992 320.81 33.128C320.634 33.256 320.546 33.424 320.546 33.632C320.546 33.84 320.666 34.004 320.906 34.124C321.154 34.244 321.478 34.352 321.878 34.448C322.278 34.536 322.646 34.64 322.982 34.76C323.326 34.872 323.602 35.04 323.81 35.264C324.018 35.488 324.122 35.816 324.122 36.248C324.13 36.792 323.918 37.244 323.486 37.604C323.062 37.964 322.482 38.144 321.746 38.144Z" fill="white"/>
<path d="M213.355 78.384C211.243 78.384 209.398 77.904 207.819 76.944C206.24 75.984 205.014 74.64 204.139 72.912C203.264 71.184 202.827 69.168 202.827 66.864C202.827 64.5814 203.275 62.5654 204.171 60.816C205.067 59.0667 206.336 57.7014 207.979 56.72C209.643 55.7174 211.606 55.216 213.867 55.216C216.427 55.216 218.56 55.8347 220.267 57.072C221.974 58.3094 223.083 60.016 223.595 62.192H219.755C219.414 60.9974 218.742 60.0587 217.739 59.376C216.736 58.6934 215.446 58.352 213.867 58.352C211.52 58.352 209.675 59.1094 208.331 60.624C206.987 62.1387 206.315 64.2294 206.315 66.896C206.315 69.5627 206.976 71.6427 208.299 73.136C209.622 74.6294 211.382 75.376 213.579 75.376C215.798 75.376 217.462 74.7467 218.571 73.488C219.702 72.2294 220.363 70.5547 220.555 68.464H214.475V65.84H223.979V78H220.875L220.587 74.704C219.84 75.8774 218.902 76.784 217.771 77.424C216.64 78.064 215.168 78.384 213.355 78.384ZM234.432 78.384C232.874 78.384 231.488 78.0427 230.272 77.36C229.077 76.656 228.138 75.6854 227.456 74.448C226.773 73.2107 226.432 71.7707 226.432 70.128C226.432 68.464 226.762 67.0027 227.424 65.744C228.106 64.4854 229.045 63.504 230.24 62.8C231.456 62.096 232.864 61.744 234.464 61.744C236.021 61.744 237.376 62.096 238.528 62.8C239.68 63.4827 240.576 64.4 241.216 65.552C241.856 66.704 242.176 67.9734 242.176 69.36C242.176 69.5734 242.165 69.808 242.144 70.064C242.144 70.2987 242.133 70.5654 242.112 70.864H229.76C229.866 72.4 230.368 73.5734 231.264 74.384C232.181 75.1734 233.237 75.568 234.432 75.568C235.392 75.568 236.192 75.3547 236.832 74.928C237.493 74.48 237.984 73.8827 238.304 73.136H241.696C241.269 74.6294 240.416 75.8774 239.136 76.88C237.877 77.8827 236.309 78.384 234.432 78.384ZM234.432 64.528C233.301 64.528 232.298 64.8694 231.424 65.552C230.549 66.2134 230.016 67.216 229.824 68.56H238.784C238.72 67.3227 238.282 66.3414 237.472 65.616C236.661 64.8907 235.648 64.528 234.432 64.528ZM250.985 78C249.428 78 248.19 77.6267 247.273 76.88C246.356 76.112 245.897 74.7574 245.897 72.816V64.976H243.177V62.128H245.897L246.313 58.096H249.289V62.128H253.769V64.976H249.289V72.816C249.289 73.6907 249.47 74.2987 249.833 74.64C250.217 74.96 250.868 75.12 251.785 75.12H253.609V78H250.985ZM263.089 78V75.568C264.54 74.416 265.926 73.2534 267.249 72.08C268.572 70.9067 269.745 69.7547 270.769 68.624C271.814 67.472 272.636 66.352 273.233 65.264C273.83 64.1547 274.129 63.088 274.129 62.064C274.129 61.3814 274.012 60.7414 273.777 60.144C273.542 59.5254 273.158 59.0347 272.625 58.672C272.092 58.288 271.377 58.096 270.481 58.096C269.137 58.096 268.124 58.5227 267.441 59.376C266.78 60.2294 266.46 61.2534 266.481 62.448H263.185C263.206 60.8694 263.537 59.5467 264.177 58.48C264.838 57.4134 265.713 56.6027 266.801 56.048C267.91 55.4934 269.158 55.216 270.545 55.216C272.657 55.216 274.342 55.8134 275.601 57.008C276.881 58.1814 277.521 59.824 277.521 61.936C277.521 63.1947 277.212 64.4427 276.593 65.68C275.996 66.9174 275.206 68.112 274.225 69.264C273.265 70.3947 272.23 71.4614 271.121 72.464C270.012 73.4667 268.956 74.3734 267.953 75.184H278.193V78H263.089ZM288.697 78.384C287.119 78.384 285.753 78.1067 284.601 77.552C283.449 76.976 282.532 76.1974 281.849 75.216C281.188 74.2134 280.783 73.0827 280.633 71.824H283.961C284.175 72.8907 284.708 73.776 285.561 74.48C286.415 75.1627 287.471 75.504 288.729 75.504C289.668 75.504 290.479 75.28 291.161 74.832C291.844 74.3627 292.377 73.744 292.761 72.976C293.145 72.208 293.337 71.344 293.337 70.384C293.337 68.8694 292.911 67.664 292.057 66.768C291.204 65.8507 290.127 65.392 288.825 65.392C287.716 65.392 286.767 65.6587 285.977 66.192C285.188 66.704 284.612 67.3547 284.249 68.144H281.017L282.937 55.6H295.033V58.576H285.497L284.345 64.56C284.836 64.0054 285.508 63.5467 286.361 63.184C287.236 62.8 288.217 62.608 289.305 62.608C290.82 62.608 292.121 62.96 293.209 63.664C294.297 64.3467 295.129 65.2747 295.705 66.448C296.303 67.6214 296.601 68.9227 296.601 70.352C296.601 71.8454 296.281 73.2 295.641 74.416C295.001 75.632 294.084 76.6027 292.889 77.328C291.716 78.032 290.319 78.384 288.697 78.384ZM303.968 66.288C302.966 66.288 302.059 66.064 301.248 65.616C300.459 65.168 299.83 64.5387 299.36 63.728C298.891 62.896 298.656 61.904 298.656 60.752C298.656 59.6214 298.891 58.6507 299.36 57.84C299.83 57.008 300.47 56.368 301.28 55.92C302.091 55.472 302.998 55.248 304 55.248C304.982 55.248 305.867 55.472 306.656 55.92C307.467 56.368 308.107 57.008 308.576 57.84C309.046 58.6507 309.28 59.6214 309.28 60.752C309.28 61.904 309.046 62.896 308.576 63.728C308.107 64.5387 307.467 65.168 306.656 65.616C305.867 66.064 304.971 66.288 303.968 66.288ZM302.368 78L315.2 55.6H318.528L305.728 78H302.368ZM303.968 63.856C304.651 63.856 305.238 63.6 305.728 63.088C306.24 62.5547 306.496 61.776 306.496 60.752C306.496 59.728 306.251 58.96 305.76 58.448C305.27 57.9147 304.672 57.648 303.968 57.648C303.286 57.648 302.688 57.9147 302.176 58.448C301.664 58.96 301.408 59.728 301.408 60.752C301.408 61.776 301.654 62.5547 302.144 63.088C302.656 63.6 303.264 63.856 303.968 63.856ZM317.12 78.384C316.118 78.384 315.211 78.16 314.4 77.712C313.611 77.264 312.982 76.6347 312.512 75.824C312.043 74.992 311.808 74 311.808 72.848C311.808 71.7174 312.043 70.736 312.512 69.904C312.982 69.072 313.622 68.432 314.432 67.984C315.243 67.536 316.15 67.312 317.152 67.312C318.134 67.312 319.019 67.536 319.808 67.984C320.619 68.432 321.259 69.072 321.728 69.904C322.198 70.736 322.432 71.7174 322.432 72.848C322.432 74 322.198 74.992 321.728 75.824C321.259 76.6347 320.619 77.264 319.808 77.712C319.019 78.16 318.123 78.384 317.12 78.384ZM317.12 75.92C317.803 75.92 318.39 75.664 318.88 75.152C319.392 74.64 319.648 73.872 319.648 72.848C319.648 71.824 319.403 71.056 318.912 70.544C318.422 70.0107 317.824 69.744 317.12 69.744C316.438 69.744 315.84 70.0107 315.328 70.544C314.816 71.056 314.56 71.824 314.56 72.848C314.56 73.872 314.806 74.64 315.296 75.152C315.808 75.664 316.416 75.92 317.12 75.92Z" fill="white"/>
<rect x="201.355" y="99" width="107.254" height="30" rx="15" fill="white"/>
<path d="M219.232 119.168C218.308 119.168 217.501 118.958 216.81 118.538C216.12 118.118 215.583 117.53 215.2 116.774C214.818 116.018 214.626 115.136 214.626 114.128C214.626 113.129 214.822 112.247 215.214 111.482C215.606 110.717 216.162 110.119 216.88 109.69C217.608 109.251 218.467 109.032 219.456 109.032C220.576 109.032 221.51 109.303 222.256 109.844C223.003 110.385 223.488 111.132 223.712 112.084H222.032C221.883 111.561 221.589 111.151 221.15 110.852C220.712 110.553 220.147 110.404 219.456 110.404C218.43 110.404 217.622 110.735 217.034 111.398C216.446 112.061 216.152 112.975 216.152 114.142C216.152 115.309 216.442 116.219 217.02 116.872C217.599 117.525 218.369 117.852 219.33 117.852C220.301 117.852 221.029 117.577 221.514 117.026C222.009 116.475 222.298 115.743 222.382 114.828H219.722V113.68H223.88V119H222.522L222.396 117.558C222.07 118.071 221.659 118.468 221.164 118.748C220.67 119.028 220.026 119.168 219.232 119.168ZM225.626 119V112.056H226.956L227.082 113.372C227.324 112.915 227.66 112.555 228.09 112.294C228.528 112.023 229.056 111.888 229.672 111.888V113.442H229.266C228.855 113.442 228.486 113.512 228.16 113.652C227.842 113.783 227.586 114.011 227.39 114.338C227.203 114.655 227.11 115.099 227.11 115.668V119H225.626ZM233.296 119.168C232.708 119.168 232.223 119.07 231.84 118.874C231.457 118.678 231.173 118.421 230.986 118.104C230.799 117.777 230.706 117.423 230.706 117.04C230.706 116.368 230.967 115.836 231.49 115.444C232.013 115.052 232.759 114.856 233.73 114.856H235.55V114.73C235.55 114.189 235.401 113.783 235.102 113.512C234.813 113.241 234.435 113.106 233.968 113.106C233.557 113.106 233.198 113.209 232.89 113.414C232.591 113.61 232.409 113.904 232.344 114.296H230.86C230.907 113.792 231.075 113.363 231.364 113.008C231.663 112.644 232.036 112.369 232.484 112.182C232.941 111.986 233.441 111.888 233.982 111.888C234.953 111.888 235.704 112.145 236.236 112.658C236.768 113.162 237.034 113.853 237.034 114.73V119H235.746L235.62 117.81C235.424 118.193 235.139 118.515 234.766 118.776C234.393 119.037 233.903 119.168 233.296 119.168ZM233.59 117.964C233.991 117.964 234.327 117.871 234.598 117.684C234.878 117.488 235.093 117.231 235.242 116.914C235.401 116.597 235.499 116.247 235.536 115.864H233.884C233.296 115.864 232.876 115.967 232.624 116.172C232.381 116.377 232.26 116.634 232.26 116.942C232.26 117.259 232.377 117.511 232.61 117.698C232.853 117.875 233.179 117.964 233.59 117.964ZM242.67 119.168C242.129 119.168 241.648 119.061 241.228 118.846C240.818 118.631 240.491 118.328 240.248 117.936L240.094 119H238.764V108.92H240.248V113.134C240.472 112.807 240.78 112.518 241.172 112.266C241.564 112.014 242.068 111.888 242.684 111.888C243.356 111.888 243.949 112.047 244.462 112.364C244.976 112.681 245.377 113.115 245.666 113.666C245.965 114.217 246.114 114.842 246.114 115.542C246.114 116.242 245.965 116.867 245.666 117.418C245.377 117.959 244.976 118.389 244.462 118.706C243.949 119.014 243.352 119.168 242.67 119.168ZM242.418 117.88C243.053 117.88 243.576 117.665 243.986 117.236C244.397 116.797 244.602 116.228 244.602 115.528C244.602 115.071 244.509 114.665 244.322 114.31C244.136 113.955 243.879 113.68 243.552 113.484C243.226 113.279 242.848 113.176 242.418 113.176C241.784 113.176 241.261 113.395 240.85 113.834C240.449 114.273 240.248 114.837 240.248 115.528C240.248 116.228 240.449 116.797 240.85 117.236C241.261 117.665 241.784 117.88 242.418 117.88ZM255.825 119.168C254.854 119.168 254.005 118.953 253.277 118.524C252.549 118.095 251.979 117.502 251.569 116.746C251.158 115.981 250.953 115.099 250.953 114.1C250.953 113.101 251.158 112.224 251.569 111.468C251.979 110.703 252.549 110.105 253.277 109.676C254.005 109.247 254.854 109.032 255.825 109.032C256.795 109.032 257.645 109.247 258.373 109.676C259.101 110.105 259.665 110.703 260.067 111.468C260.477 112.224 260.683 113.101 260.683 114.1C260.683 115.099 260.477 115.981 260.067 116.746C259.665 117.502 259.101 118.095 258.373 118.524C257.645 118.953 256.795 119.168 255.825 119.168ZM255.825 117.838C256.497 117.838 257.08 117.689 257.575 117.39C258.079 117.091 258.471 116.662 258.751 116.102C259.031 115.542 259.171 114.875 259.171 114.1C259.171 113.325 259.031 112.658 258.751 112.098C258.471 111.538 258.079 111.109 257.575 110.81C257.08 110.511 256.497 110.362 255.825 110.362C255.153 110.362 254.565 110.511 254.061 110.81C253.557 111.109 253.165 111.538 252.885 112.098C252.614 112.658 252.479 113.325 252.479 114.1C252.479 114.875 252.614 115.542 252.885 116.102C253.165 116.662 253.557 117.091 254.061 117.39C254.565 117.689 255.153 117.838 255.825 117.838ZM262.63 119V113.302H261.636V112.056H262.63V111.048C262.63 110.292 262.816 109.751 263.19 109.424C263.572 109.088 264.109 108.92 264.8 108.92H265.528V110.18H265.024C264.697 110.18 264.464 110.25 264.324 110.39C264.184 110.521 264.114 110.745 264.114 111.062V112.056H265.71V113.302H264.114V119H262.63ZM267.47 119V113.302H266.476V112.056H267.47V111.048C267.47 110.292 267.656 109.751 268.03 109.424C268.412 109.088 268.949 108.92 269.64 108.92H270.368V110.18H269.864C269.537 110.18 269.304 110.25 269.164 110.39C269.024 110.521 268.954 110.745 268.954 111.062V112.056H270.55V113.302H268.954V119H267.47ZM274.934 119.168C274.253 119.168 273.646 119.019 273.114 118.72C272.591 118.412 272.181 117.987 271.882 117.446C271.583 116.905 271.434 116.275 271.434 115.556C271.434 114.828 271.579 114.189 271.868 113.638C272.167 113.087 272.577 112.658 273.1 112.35C273.632 112.042 274.248 111.888 274.948 111.888C275.629 111.888 276.222 112.042 276.726 112.35C277.23 112.649 277.622 113.05 277.902 113.554C278.182 114.058 278.322 114.613 278.322 115.22C278.322 115.313 278.317 115.416 278.308 115.528C278.308 115.631 278.303 115.747 278.294 115.878H272.89C272.937 116.55 273.156 117.063 273.548 117.418C273.949 117.763 274.411 117.936 274.934 117.936C275.354 117.936 275.704 117.843 275.984 117.656C276.273 117.46 276.488 117.199 276.628 116.872H278.112C277.925 117.525 277.552 118.071 276.992 118.51C276.441 118.949 275.755 119.168 274.934 119.168ZM274.934 113.106C274.439 113.106 274.001 113.255 273.618 113.554C273.235 113.843 273.002 114.282 272.918 114.87H276.838C276.81 114.329 276.619 113.899 276.264 113.582C275.909 113.265 275.466 113.106 274.934 113.106ZM279.862 119V112.056H281.192L281.318 113.372C281.56 112.915 281.896 112.555 282.326 112.294C282.764 112.023 283.292 111.888 283.908 111.888V113.442H283.502C283.091 113.442 282.722 113.512 282.396 113.652C282.078 113.783 281.822 114.011 281.626 114.338C281.439 114.655 281.346 115.099 281.346 115.668V119H279.862Z" fill="#6BA821"/>
<path d="M291.416 109.156L295.326 113.313C295.436 113.449 295.518 113.613 295.518 113.75C295.518 113.914 295.436 114.078 295.326 114.215L291.416 118.371C291.17 118.645 290.76 118.645 290.486 118.398C290.213 118.152 290.213 117.742 290.459 117.469L293.959 113.75L290.459 110.059C290.213 109.785 290.213 109.375 290.486 109.129C290.76 108.883 291.17 108.883 291.416 109.156Z" fill="#6BA821"/>
</g>
</svg>
