<svg width="342" height="158" viewBox="0 0 342 158" fill="none" xmlns="http://www.w3.org/2000/svg">
<mask id="mask0_136_3394" style="mask-type:alpha" maskUnits="userSpaceOnUse" x="0" y="0" width="342" height="158">
<rect width="342" height="158" rx="16" fill="#D9D9D9"/>
</mask>
<g mask="url(#mask0_136_3394)">
<ellipse cx="551.956" cy="78.5" rx="380.956" ry="376.5" fill="#23AA49"/>
<path opacity="0.8" d="M203.923 38.012L201.655 29.6H203.023L204.691 36.56L206.611 29.6H208.015L209.875 36.56L211.543 29.6H212.911L210.607 38H209.119L207.283 31.412L205.387 38L203.923 38.012ZM216.193 38.144C215.625 38.144 215.113 38.016 214.657 37.76C214.209 37.496 213.853 37.132 213.589 36.668C213.325 36.196 213.193 35.648 213.193 35.024C213.193 34.4 213.325 33.856 213.589 33.392C213.861 32.92 214.225 32.556 214.681 32.3C215.137 32.036 215.645 31.904 216.205 31.904C216.773 31.904 217.281 32.036 217.729 32.3C218.185 32.556 218.545 32.92 218.809 33.392C219.081 33.856 219.217 34.4 219.217 35.024C219.217 35.648 219.081 36.196 218.809 36.668C218.545 37.132 218.185 37.496 217.729 37.76C217.273 38.016 216.761 38.144 216.193 38.144ZM216.193 37.052C216.497 37.052 216.777 36.976 217.033 36.824C217.297 36.672 217.509 36.448 217.669 36.152C217.829 35.848 217.909 35.472 217.909 35.024C217.909 34.576 217.829 34.204 217.669 33.908C217.517 33.604 217.309 33.376 217.045 33.224C216.789 33.072 216.509 32.996 216.205 32.996C215.901 32.996 215.617 33.072 215.353 33.224C215.097 33.376 214.889 33.604 214.729 33.908C214.569 34.204 214.489 34.576 214.489 35.024C214.489 35.472 214.569 35.848 214.729 36.152C214.889 36.448 215.097 36.672 215.353 36.824C215.609 36.976 215.889 37.052 216.193 37.052ZM220.593 38V32.048H221.733L221.841 33.176C222.049 32.784 222.337 32.476 222.705 32.252C223.081 32.02 223.533 31.904 224.061 31.904V33.236H223.713C223.361 33.236 223.045 33.296 222.765 33.416C222.493 33.528 222.273 33.724 222.105 34.004C221.945 34.276 221.865 34.656 221.865 35.144V38H220.593ZM225.151 38V29.36H226.423V38H225.151ZM230.746 38.144C230.17 38.144 229.662 38.008 229.222 37.736C228.782 37.464 228.438 37.092 228.19 36.62C227.942 36.148 227.818 35.612 227.818 35.012C227.818 34.412 227.942 33.88 228.19 33.416C228.438 32.944 228.782 32.576 229.222 32.312C229.67 32.04 230.182 31.904 230.758 31.904C231.23 31.904 231.642 31.996 231.994 32.18C232.354 32.364 232.634 32.624 232.834 32.96V29.36H234.106V38H232.966L232.834 37.076C232.642 37.356 232.378 37.604 232.042 37.82C231.706 38.036 231.274 38.144 230.746 38.144ZM230.974 37.04C231.518 37.04 231.962 36.852 232.306 36.476C232.658 36.1 232.834 35.616 232.834 35.024C232.834 34.424 232.658 33.94 232.306 33.572C231.962 33.196 231.518 33.008 230.974 33.008C230.43 33.008 229.982 33.196 229.63 33.572C229.278 33.94 229.102 34.424 229.102 35.024C229.102 35.416 229.182 35.764 229.342 36.068C229.502 36.372 229.722 36.612 230.002 36.788C230.29 36.956 230.614 37.04 230.974 37.04ZM240.749 38V30.632H238.265V29.6H244.493V30.632H242.021V38H240.749ZM245.003 38V32.048H246.143L246.251 33.176C246.459 32.784 246.747 32.476 247.115 32.252C247.491 32.02 247.943 31.904 248.471 31.904V33.236H248.123C247.771 33.236 247.455 33.296 247.175 33.416C246.903 33.528 246.683 33.724 246.515 34.004C246.355 34.276 246.275 34.656 246.275 35.144V38H245.003ZM251.577 38.144C251.073 38.144 250.657 38.06 250.329 37.892C250.001 37.724 249.757 37.504 249.597 37.232C249.437 36.952 249.357 36.648 249.357 36.32C249.357 35.744 249.581 35.288 250.029 34.952C250.477 34.616 251.117 34.448 251.949 34.448H253.509V34.34C253.509 33.876 253.381 33.528 253.125 33.296C252.877 33.064 252.553 32.948 252.153 32.948C251.801 32.948 251.493 33.036 251.229 33.212C250.973 33.38 250.817 33.632 250.761 33.968H249.489C249.529 33.536 249.673 33.168 249.921 32.864C250.177 32.552 250.497 32.316 250.881 32.156C251.273 31.988 251.701 31.904 252.165 31.904C252.997 31.904 253.641 32.124 254.097 32.564C254.553 32.996 254.781 33.588 254.781 34.34V38H253.677L253.569 36.98C253.401 37.308 253.157 37.584 252.837 37.808C252.517 38.032 252.097 38.144 251.577 38.144ZM251.829 37.112C252.173 37.112 252.461 37.032 252.693 36.872C252.933 36.704 253.117 36.484 253.245 36.212C253.381 35.94 253.465 35.64 253.497 35.312H252.081C251.577 35.312 251.217 35.4 251.001 35.576C250.793 35.752 250.689 35.972 250.689 36.236C250.689 36.508 250.789 36.724 250.989 36.884C251.197 37.036 251.477 37.112 251.829 37.112ZM258.64 38.144C257.888 38.144 257.268 37.96 256.78 37.592C256.292 37.224 256.012 36.736 255.94 36.128H257.224C257.288 36.4 257.44 36.636 257.68 36.836C257.92 37.028 258.236 37.124 258.628 37.124C259.012 37.124 259.292 37.044 259.468 36.884C259.644 36.724 259.732 36.54 259.732 36.332C259.732 36.028 259.608 35.824 259.36 35.72C259.12 35.608 258.784 35.508 258.352 35.42C258.016 35.348 257.68 35.252 257.344 35.132C257.016 35.012 256.74 34.844 256.516 34.628C256.3 34.404 256.192 34.104 256.192 33.728C256.192 33.208 256.392 32.776 256.792 32.432C257.192 32.08 257.752 31.904 258.472 31.904C259.136 31.904 259.672 32.064 260.08 32.384C260.496 32.704 260.74 33.156 260.812 33.74H259.588C259.548 33.484 259.428 33.284 259.228 33.14C259.036 32.996 258.776 32.924 258.448 32.924C258.128 32.924 257.88 32.992 257.704 33.128C257.528 33.256 257.44 33.424 257.44 33.632C257.44 33.84 257.56 34.004 257.8 34.124C258.048 34.244 258.372 34.352 258.772 34.448C259.172 34.536 259.54 34.64 259.876 34.76C260.22 34.872 260.496 35.04 260.704 35.264C260.912 35.488 261.016 35.816 261.016 36.248C261.024 36.792 260.812 37.244 260.38 37.604C259.956 37.964 259.376 38.144 258.64 38.144ZM262.405 38V29.36H263.677V33.008C263.877 32.664 264.153 32.396 264.505 32.204C264.865 32.004 265.261 31.904 265.693 31.904C266.405 31.904 266.965 32.128 267.373 32.576C267.781 33.024 267.985 33.692 267.985 34.58V38H266.725V34.712C266.725 33.56 266.265 32.984 265.345 32.984C264.865 32.984 264.465 33.152 264.145 33.488C263.833 33.824 263.677 34.304 263.677 34.928V38H262.405ZM272.555 38V29.6H275.279C276.263 29.6 277.071 29.772 277.703 30.116C278.343 30.46 278.815 30.948 279.119 31.58C279.431 32.204 279.587 32.948 279.587 33.812C279.587 34.668 279.431 35.412 279.119 36.044C278.815 36.668 278.343 37.152 277.703 37.496C277.071 37.832 276.263 38 275.279 38H272.555ZM273.827 36.92H275.231C275.991 36.92 276.591 36.796 277.031 36.548C277.479 36.3 277.799 35.944 277.991 35.48C278.191 35.016 278.291 34.46 278.291 33.812C278.291 33.164 278.191 32.604 277.991 32.132C277.799 31.66 277.479 31.3 277.031 31.052C276.591 30.796 275.991 30.668 275.231 30.668H273.827V36.92ZM282.96 38.144C282.456 38.144 282.04 38.06 281.712 37.892C281.384 37.724 281.14 37.504 280.98 37.232C280.82 36.952 280.74 36.648 280.74 36.32C280.74 35.744 280.964 35.288 281.412 34.952C281.86 34.616 282.5 34.448 283.332 34.448H284.892V34.34C284.892 33.876 284.764 33.528 284.508 33.296C284.26 33.064 283.936 32.948 283.536 32.948C283.184 32.948 282.876 33.036 282.612 33.212C282.356 33.38 282.2 33.632 282.144 33.968H280.872C280.912 33.536 281.056 33.168 281.304 32.864C281.56 32.552 281.88 32.316 282.264 32.156C282.656 31.988 283.084 31.904 283.548 31.904C284.38 31.904 285.024 32.124 285.48 32.564C285.936 32.996 286.164 33.588 286.164 34.34V38H285.06L284.952 36.98C284.784 37.308 284.54 37.584 284.22 37.808C283.9 38.032 283.48 38.144 282.96 38.144ZM283.212 37.112C283.556 37.112 283.844 37.032 284.076 36.872C284.316 36.704 284.5 36.484 284.628 36.212C284.764 35.94 284.848 35.64 284.88 35.312H283.464C282.96 35.312 282.6 35.4 282.384 35.576C282.176 35.752 282.072 35.972 282.072 36.236C282.072 36.508 282.172 36.724 282.372 36.884C282.58 37.036 282.86 37.112 283.212 37.112ZM288.156 40.64L289.584 37.508H289.236L286.884 32.048H288.264L290.088 36.452L291.996 32.048H293.34L289.5 40.64H288.156ZM301.333 38.144C300.501 38.144 299.773 37.96 299.149 37.592C298.525 37.224 298.037 36.716 297.685 36.068C297.333 35.412 297.157 34.656 297.157 33.8C297.157 32.944 297.333 32.192 297.685 31.544C298.037 30.888 298.525 30.376 299.149 30.008C299.773 29.64 300.501 29.456 301.333 29.456C302.165 29.456 302.893 29.64 303.517 30.008C304.141 30.376 304.625 30.888 304.969 31.544C305.321 32.192 305.497 32.944 305.497 33.8C305.497 34.656 305.321 35.412 304.969 36.068C304.625 36.716 304.141 37.224 303.517 37.592C302.893 37.96 302.165 38.144 301.333 38.144ZM301.333 37.004C301.909 37.004 302.409 36.876 302.833 36.62C303.265 36.364 303.601 35.996 303.841 35.516C304.081 35.036 304.201 34.464 304.201 33.8C304.201 33.136 304.081 32.564 303.841 32.084C303.601 31.604 303.265 31.236 302.833 30.98C302.409 30.724 301.909 30.596 301.333 30.596C300.757 30.596 300.253 30.724 299.821 30.98C299.389 31.236 299.053 31.604 298.813 32.084C298.581 32.564 298.465 33.136 298.465 33.8C298.465 34.464 298.581 35.036 298.813 35.516C299.053 35.996 299.389 36.364 299.821 36.62C300.253 36.876 300.757 37.004 301.333 37.004ZM307.166 38V33.116H306.314V32.048H307.166V31.184C307.166 30.536 307.326 30.072 307.646 29.792C307.974 29.504 308.434 29.36 309.026 29.36H309.65V30.44H309.218C308.938 30.44 308.738 30.5 308.618 30.62C308.498 30.732 308.438 30.924 308.438 31.196V32.048H309.806V33.116H308.438V38H307.166ZM311.314 38V33.116H310.462V32.048H311.314V31.184C311.314 30.536 311.474 30.072 311.794 29.792C312.122 29.504 312.582 29.36 313.174 29.36H313.798V30.44H313.366C313.086 30.44 312.886 30.5 312.766 30.62C312.646 30.732 312.586 30.924 312.586 31.196V32.048H313.954V33.116H312.586V38H311.314ZM317.713 38.144C317.129 38.144 316.609 38.016 316.153 37.76C315.705 37.496 315.353 37.132 315.097 36.668C314.841 36.204 314.713 35.664 314.713 35.048C314.713 34.424 314.837 33.876 315.085 33.404C315.341 32.932 315.693 32.564 316.141 32.3C316.597 32.036 317.125 31.904 317.725 31.904C318.309 31.904 318.817 32.036 319.249 32.3C319.681 32.556 320.017 32.9 320.257 33.332C320.497 33.764 320.617 34.24 320.617 34.76C320.617 34.84 320.613 34.928 320.605 35.024C320.605 35.112 320.601 35.212 320.593 35.324H315.961C316.001 35.9 316.189 36.34 316.525 36.644C316.869 36.94 317.265 37.088 317.713 37.088C318.073 37.088 318.373 37.008 318.613 36.848C318.861 36.68 319.045 36.456 319.165 36.176H320.437C320.277 36.736 319.957 37.204 319.477 37.58C319.005 37.956 318.417 38.144 317.713 38.144ZM317.713 32.948C317.289 32.948 316.913 33.076 316.585 33.332C316.257 33.58 316.057 33.956 315.985 34.46H319.345C319.321 33.996 319.157 33.628 318.853 33.356C318.549 33.084 318.169 32.948 317.713 32.948ZM321.936 38V32.048H323.076L323.184 33.176C323.392 32.784 323.68 32.476 324.048 32.252C324.424 32.02 324.876 31.904 325.404 31.904V33.236H325.056C324.704 33.236 324.388 33.296 324.108 33.416C323.836 33.528 323.616 33.724 323.448 34.004C323.288 34.276 323.208 34.656 323.208 35.144V38H321.936ZM328.871 38.144C328.119 38.144 327.499 37.96 327.011 37.592C326.523 37.224 326.243 36.736 326.171 36.128H327.455C327.519 36.4 327.671 36.636 327.911 36.836C328.151 37.028 328.467 37.124 328.859 37.124C329.243 37.124 329.523 37.044 329.699 36.884C329.875 36.724 329.963 36.54 329.963 36.332C329.963 36.028 329.839 35.824 329.591 35.72C329.351 35.608 329.015 35.508 328.583 35.42C328.247 35.348 327.911 35.252 327.575 35.132C327.247 35.012 326.971 34.844 326.747 34.628C326.531 34.404 326.423 34.104 326.423 33.728C326.423 33.208 326.623 32.776 327.023 32.432C327.423 32.08 327.983 31.904 328.703 31.904C329.367 31.904 329.903 32.064 330.311 32.384C330.727 32.704 330.971 33.156 331.043 33.74H329.819C329.779 33.484 329.659 33.284 329.459 33.14C329.267 32.996 329.007 32.924 328.679 32.924C328.359 32.924 328.111 32.992 327.935 33.128C327.759 33.256 327.671 33.424 327.671 33.632C327.671 33.84 327.791 34.004 328.031 34.124C328.279 34.244 328.603 34.352 329.003 34.448C329.403 34.536 329.771 34.64 330.107 34.76C330.451 34.872 330.727 35.04 330.935 35.264C331.143 35.488 331.247 35.816 331.247 36.248C331.255 36.792 331.043 37.244 330.611 37.604C330.187 37.964 329.607 38.144 328.871 38.144Z" fill="white"/>
<path d="M213.355 78.384C211.243 78.384 209.398 77.904 207.819 76.944C206.24 75.984 205.014 74.64 204.139 72.912C203.264 71.184 202.827 69.168 202.827 66.864C202.827 64.5814 203.275 62.5654 204.171 60.816C205.067 59.0667 206.336 57.7014 207.979 56.72C209.643 55.7174 211.606 55.216 213.867 55.216C216.427 55.216 218.56 55.8347 220.267 57.072C221.974 58.3094 223.083 60.016 223.595 62.192H219.755C219.414 60.9974 218.742 60.0587 217.739 59.376C216.736 58.6934 215.446 58.352 213.867 58.352C211.52 58.352 209.675 59.1094 208.331 60.624C206.987 62.1387 206.315 64.2294 206.315 66.896C206.315 69.5627 206.976 71.6427 208.299 73.136C209.622 74.6294 211.382 75.376 213.579 75.376C215.798 75.376 217.462 74.7467 218.571 73.488C219.702 72.2294 220.363 70.5547 220.555 68.464H214.475V65.84H223.979V78H220.875L220.587 74.704C219.84 75.8774 218.902 76.784 217.771 77.424C216.64 78.064 215.168 78.384 213.355 78.384ZM234.432 78.384C232.874 78.384 231.488 78.0427 230.272 77.36C229.077 76.656 228.138 75.6854 227.456 74.448C226.773 73.2107 226.432 71.7707 226.432 70.128C226.432 68.464 226.762 67.0027 227.424 65.744C228.106 64.4854 229.045 63.504 230.24 62.8C231.456 62.096 232.864 61.744 234.464 61.744C236.021 61.744 237.376 62.096 238.528 62.8C239.68 63.4827 240.576 64.4 241.216 65.552C241.856 66.704 242.176 67.9734 242.176 69.36C242.176 69.5734 242.165 69.808 242.144 70.064C242.144 70.2987 242.133 70.5654 242.112 70.864H229.76C229.866 72.4 230.368 73.5734 231.264 74.384C232.181 75.1734 233.237 75.568 234.432 75.568C235.392 75.568 236.192 75.3547 236.832 74.928C237.493 74.48 237.984 73.8827 238.304 73.136H241.696C241.269 74.6294 240.416 75.8774 239.136 76.88C237.877 77.8827 236.309 78.384 234.432 78.384ZM234.432 64.528C233.301 64.528 232.298 64.8694 231.424 65.552C230.549 66.2134 230.016 67.216 229.824 68.56H238.784C238.72 67.3227 238.282 66.3414 237.472 65.616C236.661 64.8907 235.648 64.528 234.432 64.528ZM250.985 78C249.428 78 248.19 77.6267 247.273 76.88C246.356 76.112 245.897 74.7574 245.897 72.816V64.976H243.177V62.128H245.897L246.313 58.096H249.289V62.128H253.769V64.976H249.289V72.816C249.289 73.6907 249.47 74.2987 249.833 74.64C250.217 74.96 250.868 75.12 251.785 75.12H253.609V78H250.985ZM265.841 78V59.44L262.225 60.272V57.776L267.185 55.6H269.361V78H265.841ZM281.912 78.384C279.885 78.384 278.136 77.904 276.664 76.944C275.213 75.9627 274.093 74.608 273.304 72.88C272.536 71.1307 272.152 69.104 272.152 66.8C272.152 64.496 272.536 62.48 273.304 60.752C274.093 59.0027 275.213 57.648 276.664 56.688C278.136 55.7067 279.885 55.216 281.912 55.216C283.939 55.216 285.677 55.7067 287.128 56.688C288.579 57.648 289.688 59.0027 290.456 60.752C291.245 62.48 291.64 64.496 291.64 66.8C291.64 69.104 291.245 71.1307 290.456 72.88C289.688 74.608 288.579 75.9627 287.128 76.944C285.677 77.904 283.939 78.384 281.912 78.384ZM281.912 75.344C283.128 75.344 284.205 75.0027 285.144 74.32C286.104 73.6374 286.851 72.656 287.384 71.376C287.917 70.096 288.184 68.5707 288.184 66.8C288.184 65.0294 287.917 63.504 287.384 62.224C286.851 60.944 286.104 59.9627 285.144 59.28C284.205 58.5974 283.128 58.256 281.912 58.256C280.675 58.256 279.587 58.5974 278.648 59.28C277.709 59.9627 276.973 60.944 276.44 62.224C275.907 63.504 275.64 65.0294 275.64 66.8C275.64 68.5707 275.907 70.096 276.44 71.376C276.973 72.656 277.709 73.6374 278.648 74.32C279.587 75.0027 280.675 75.344 281.912 75.344ZM298.781 66.288C297.778 66.288 296.871 66.064 296.061 65.616C295.271 65.168 294.642 64.5387 294.173 63.728C293.703 62.896 293.469 61.904 293.469 60.752C293.469 59.6214 293.703 58.6507 294.173 57.84C294.642 57.008 295.282 56.368 296.093 55.92C296.903 55.472 297.81 55.248 298.813 55.248C299.794 55.248 300.679 55.472 301.469 55.92C302.279 56.368 302.919 57.008 303.389 57.84C303.858 58.6507 304.093 59.6214 304.093 60.752C304.093 61.904 303.858 62.896 303.389 63.728C302.919 64.5387 302.279 65.168 301.469 65.616C300.679 66.064 299.783 66.288 298.781 66.288ZM297.181 78L310.013 55.6H313.341L300.541 78H297.181ZM298.781 63.856C299.463 63.856 300.05 63.6 300.541 63.088C301.053 62.5547 301.309 61.776 301.309 60.752C301.309 59.728 301.063 58.96 300.573 58.448C300.082 57.9147 299.485 57.648 298.781 57.648C298.098 57.648 297.501 57.9147 296.989 58.448C296.477 58.96 296.221 59.728 296.221 60.752C296.221 61.776 296.466 62.5547 296.957 63.088C297.469 63.6 298.077 63.856 298.781 63.856ZM311.933 78.384C310.93 78.384 310.023 78.16 309.213 77.712C308.423 77.264 307.794 76.6347 307.325 75.824C306.855 74.992 306.621 74 306.621 72.848C306.621 71.7174 306.855 70.736 307.325 69.904C307.794 69.072 308.434 68.432 309.245 67.984C310.055 67.536 310.962 67.312 311.965 67.312C312.946 67.312 313.831 67.536 314.621 67.984C315.431 68.432 316.071 69.072 316.541 69.904C317.01 70.736 317.245 71.7174 317.245 72.848C317.245 74 317.01 74.992 316.541 75.824C316.071 76.6347 315.431 77.264 314.621 77.712C313.831 78.16 312.935 78.384 311.933 78.384ZM311.933 75.92C312.615 75.92 313.202 75.664 313.693 75.152C314.205 74.64 314.461 73.872 314.461 72.848C314.461 71.824 314.215 71.056 313.725 70.544C313.234 70.0107 312.637 69.744 311.933 69.744C311.25 69.744 310.653 70.0107 310.141 70.544C309.629 71.056 309.373 71.824 309.373 72.848C309.373 73.872 309.618 74.64 310.109 75.152C310.621 75.664 311.229 75.92 311.933 75.92Z" fill="white"/>
<rect x="201.355" y="99" width="107.254" height="30" rx="15" fill="white"/>
<path d="M219.232 119.168C218.308 119.168 217.501 118.958 216.81 118.538C216.12 118.118 215.583 117.53 215.2 116.774C214.818 116.018 214.626 115.136 214.626 114.128C214.626 113.129 214.822 112.247 215.214 111.482C215.606 110.717 216.162 110.119 216.88 109.69C217.608 109.251 218.467 109.032 219.456 109.032C220.576 109.032 221.51 109.303 222.256 109.844C223.003 110.385 223.488 111.132 223.712 112.084H222.032C221.883 111.561 221.589 111.151 221.15 110.852C220.712 110.553 220.147 110.404 219.456 110.404C218.43 110.404 217.622 110.735 217.034 111.398C216.446 112.061 216.152 112.975 216.152 114.142C216.152 115.309 216.442 116.219 217.02 116.872C217.599 117.525 218.369 117.852 219.33 117.852C220.301 117.852 221.029 117.577 221.514 117.026C222.009 116.475 222.298 115.743 222.382 114.828H219.722V113.68H223.88V119H222.522L222.396 117.558C222.07 118.071 221.659 118.468 221.164 118.748C220.67 119.028 220.026 119.168 219.232 119.168ZM225.626 119V112.056H226.956L227.082 113.372C227.324 112.915 227.66 112.555 228.09 112.294C228.528 112.023 229.056 111.888 229.672 111.888V113.442H229.266C228.855 113.442 228.486 113.512 228.16 113.652C227.842 113.783 227.586 114.011 227.39 114.338C227.203 114.655 227.11 115.099 227.11 115.668V119H225.626ZM233.296 119.168C232.708 119.168 232.223 119.07 231.84 118.874C231.457 118.678 231.173 118.421 230.986 118.104C230.799 117.777 230.706 117.423 230.706 117.04C230.706 116.368 230.967 115.836 231.49 115.444C232.013 115.052 232.759 114.856 233.73 114.856H235.55V114.73C235.55 114.189 235.401 113.783 235.102 113.512C234.813 113.241 234.435 113.106 233.968 113.106C233.557 113.106 233.198 113.209 232.89 113.414C232.591 113.61 232.409 113.904 232.344 114.296H230.86C230.907 113.792 231.075 113.363 231.364 113.008C231.663 112.644 232.036 112.369 232.484 112.182C232.941 111.986 233.441 111.888 233.982 111.888C234.953 111.888 235.704 112.145 236.236 112.658C236.768 113.162 237.034 113.853 237.034 114.73V119H235.746L235.62 117.81C235.424 118.193 235.139 118.515 234.766 118.776C234.393 119.037 233.903 119.168 233.296 119.168ZM233.59 117.964C233.991 117.964 234.327 117.871 234.598 117.684C234.878 117.488 235.093 117.231 235.242 116.914C235.401 116.597 235.499 116.247 235.536 115.864H233.884C233.296 115.864 232.876 115.967 232.624 116.172C232.381 116.377 232.26 116.634 232.26 116.942C232.26 117.259 232.377 117.511 232.61 117.698C232.853 117.875 233.179 117.964 233.59 117.964ZM242.67 119.168C242.129 119.168 241.648 119.061 241.228 118.846C240.818 118.631 240.491 118.328 240.248 117.936L240.094 119H238.764V108.92H240.248V113.134C240.472 112.807 240.78 112.518 241.172 112.266C241.564 112.014 242.068 111.888 242.684 111.888C243.356 111.888 243.949 112.047 244.462 112.364C244.976 112.681 245.377 113.115 245.666 113.666C245.965 114.217 246.114 114.842 246.114 115.542C246.114 116.242 245.965 116.867 245.666 117.418C245.377 117.959 244.976 118.389 244.462 118.706C243.949 119.014 243.352 119.168 242.67 119.168ZM242.418 117.88C243.053 117.88 243.576 117.665 243.986 117.236C244.397 116.797 244.602 116.228 244.602 115.528C244.602 115.071 244.509 114.665 244.322 114.31C244.136 113.955 243.879 113.68 243.552 113.484C243.226 113.279 242.848 113.176 242.418 113.176C241.784 113.176 241.261 113.395 240.85 113.834C240.449 114.273 240.248 114.837 240.248 115.528C240.248 116.228 240.449 116.797 240.85 117.236C241.261 117.665 241.784 117.88 242.418 117.88ZM255.825 119.168C254.854 119.168 254.005 118.953 253.277 118.524C252.549 118.095 251.979 117.502 251.569 116.746C251.158 115.981 250.953 115.099 250.953 114.1C250.953 113.101 251.158 112.224 251.569 111.468C251.979 110.703 252.549 110.105 253.277 109.676C254.005 109.247 254.854 109.032 255.825 109.032C256.795 109.032 257.645 109.247 258.373 109.676C259.101 110.105 259.665 110.703 260.067 111.468C260.477 112.224 260.683 113.101 260.683 114.1C260.683 115.099 260.477 115.981 260.067 116.746C259.665 117.502 259.101 118.095 258.373 118.524C257.645 118.953 256.795 119.168 255.825 119.168ZM255.825 117.838C256.497 117.838 257.08 117.689 257.575 117.39C258.079 117.091 258.471 116.662 258.751 116.102C259.031 115.542 259.171 114.875 259.171 114.1C259.171 113.325 259.031 112.658 258.751 112.098C258.471 111.538 258.079 111.109 257.575 110.81C257.08 110.511 256.497 110.362 255.825 110.362C255.153 110.362 254.565 110.511 254.061 110.81C253.557 111.109 253.165 111.538 252.885 112.098C252.614 112.658 252.479 113.325 252.479 114.1C252.479 114.875 252.614 115.542 252.885 116.102C253.165 116.662 253.557 117.091 254.061 117.39C254.565 117.689 255.153 117.838 255.825 117.838ZM262.63 119V113.302H261.636V112.056H262.63V111.048C262.63 110.292 262.816 109.751 263.19 109.424C263.572 109.088 264.109 108.92 264.8 108.92H265.528V110.18H265.024C264.697 110.18 264.464 110.25 264.324 110.39C264.184 110.521 264.114 110.745 264.114 111.062V112.056H265.71V113.302H264.114V119H262.63ZM267.47 119V113.302H266.476V112.056H267.47V111.048C267.47 110.292 267.656 109.751 268.03 109.424C268.412 109.088 268.949 108.92 269.64 108.92H270.368V110.18H269.864C269.537 110.18 269.304 110.25 269.164 110.39C269.024 110.521 268.954 110.745 268.954 111.062V112.056H270.55V113.302H268.954V119H267.47ZM274.934 119.168C274.253 119.168 273.646 119.019 273.114 118.72C272.591 118.412 272.181 117.987 271.882 117.446C271.583 116.905 271.434 116.275 271.434 115.556C271.434 114.828 271.579 114.189 271.868 113.638C272.167 113.087 272.577 112.658 273.1 112.35C273.632 112.042 274.248 111.888 274.948 111.888C275.629 111.888 276.222 112.042 276.726 112.35C277.23 112.649 277.622 113.05 277.902 113.554C278.182 114.058 278.322 114.613 278.322 115.22C278.322 115.313 278.317 115.416 278.308 115.528C278.308 115.631 278.303 115.747 278.294 115.878H272.89C272.937 116.55 273.156 117.063 273.548 117.418C273.949 117.763 274.411 117.936 274.934 117.936C275.354 117.936 275.704 117.843 275.984 117.656C276.273 117.46 276.488 117.199 276.628 116.872H278.112C277.925 117.525 277.552 118.071 276.992 118.51C276.441 118.949 275.755 119.168 274.934 119.168ZM274.934 113.106C274.439 113.106 274.001 113.255 273.618 113.554C273.235 113.843 273.002 114.282 272.918 114.87H276.838C276.81 114.329 276.619 113.899 276.264 113.582C275.909 113.265 275.466 113.106 274.934 113.106ZM279.862 119V112.056H281.192L281.318 113.372C281.56 112.915 281.896 112.555 282.326 112.294C282.764 112.023 283.292 111.888 283.908 111.888V113.442H283.502C283.091 113.442 282.722 113.512 282.396 113.652C282.078 113.783 281.822 114.011 281.626 114.338C281.439 114.655 281.346 115.099 281.346 115.668V119H279.862Z" fill="#6BA821"/>
<path d="M291.416 109.156L295.326 113.313C295.436 113.449 295.518 113.613 295.518 113.75C295.518 113.914 295.436 114.078 295.326 114.215L291.416 118.371C291.17 118.645 290.76 118.645 290.486 118.398C290.213 118.152 290.213 117.742 290.459 117.469L293.959 113.75L290.459 110.059C290.213 109.785 290.213 109.375 290.486 109.129C290.76 108.883 291.17 108.883 291.416 109.156Z" fill="#6BA821"/>
</g>
</svg>
